 <svg version="1.0" xmlns="http://www.w3.org/2000/svg" width="700.000000pt" height="700.000000pt" viewBox="0 0 700.000000 700.000000" preserveAspectRatio="xMidYMid meet">
<metadata>
Created by potrace 1.12, written by Peter Selinger 2001-2015
</metadata>
<g transform="translate(0.000000,700.000000) scale(0.100000,-0.100000)" fill="#000000" stroke="none">
<path d="M2620 6990 c-44 -6 -43 -10 8 -26 26 -8 0 -24 -39 -24 -21 0 -39 -4
-39 -10 0 -14 -28 -12 -33 3 -2 6 -4 0 -4 -14 0 -19 10 -32 43 -53 42 -27 56
-46 33 -46 -21 0 -100 64 -95 77 4 9 -3 13 -20 13 -13 0 -27 7 -30 15 -4 8
-11 12 -16 9 -6 -4 -14 0 -19 7 -4 7 -12 10 -16 5 -4 -5 -2 -11 5 -13 6 -3 12
-9 12 -14 0 -16 -25 -10 -43 11 -19 22 -26 24 -47 10 -13 -8 -13 -10 2 -10 23
0 91 -66 85 -82 -2 -7 -12 -12 -21 -12 -21 2 -15 -20 6 -24 9 -2 19 6 23 18 3
11 11 18 16 14 5 -3 7 -9 4 -14 -3 -5 0 -12 6 -16 9 -5 7 -11 -6 -20 -14 -11
-16 -16 -6 -28 10 -12 7 -14 -21 -12 -18 2 -43 4 -55 5 -16 1 -23 7 -23 21 0
14 -4 18 -17 13 -33 -13 -149 -102 -171 -132 -34 -46 -26 -49 18 -6 22 21 43
36 46 32 8 -8 -23 -57 -36 -57 -6 0 -10 -7 -10 -16 0 -8 -4 -12 -10 -9 -5 3
-25 -8 -44 -26 -30 -27 -33 -33 -21 -45 19 -19 31 -18 15 1 -11 13 -10 18 6
30 10 8 25 12 31 10 7 -2 29 14 50 35 34 38 70 58 42 24 -10 -13 -10 -17 2
-25 11 -8 10 -9 -6 -7 -14 2 -21 -3 -23 -19 -2 -14 -8 -20 -18 -16 -9 3 -14
-1 -14 -13 0 -11 -21 -41 -45 -68 -25 -27 -45 -54 -45 -59 0 -6 14 5 30 23 17
18 30 37 30 42 0 4 6 8 14 8 8 0 18 9 21 20 3 11 10 20 15 20 15 0 24 -24 12
-28 -14 -4 -6 -22 9 -22 6 0 7 5 3 11 -4 8 1 9 17 5 22 -6 23 -6 7 7 -20 16
-24 42 -7 53 7 4 9 0 5 -14 -4 -12 -2 -23 6 -28 6 -4 14 -2 16 4 2 7 8 12 14
12 5 0 -1 -14 -13 -31 -19 -27 -26 -30 -55 -26 -35 6 -47 -3 -49 -36 -2 -21
19 -17 21 4 1 8 2 18 3 23 0 5 8 3 16 -4 13 -11 10 -18 -20 -52 -20 -21 -40
-50 -45 -64 -5 -13 -14 -24 -19 -24 -5 0 -12 -18 -16 -40 -4 -25 -12 -40 -21
-40 -8 0 -14 -8 -14 -19 0 -23 -23 -43 -42 -36 -11 5 -14 -3 -11 -35 4 -48
-13 -53 -26 -7 -9 30 -10 30 -16 10 -4 -13 -11 -20 -17 -17 -5 3 -4 11 2 19 7
8 9 19 5 25 -4 6 -1 17 5 25 7 8 16 31 20 50 7 31 5 39 -17 59 l-24 23 22 39
c27 47 41 74 68 135 17 39 56 96 103 153 4 6 17 23 28 38 13 16 27 25 35 21 8
-3 15 0 15 5 0 12 17 31 56 61 15 12 24 24 20 28 -3 3 -17 -4 -31 -17 -43 -40
-31 -12 18 41 14 16 15 19 2 19 -9 0 -18 -7 -21 -15 -4 -8 -12 -15 -20 -15 -8
0 -14 7 -14 15 0 8 -6 15 -12 16 -7 0 -35 4 -63 9 -48 8 -52 7 -102 -31 -58
-43 -76 -69 -67 -94 4 -11 -7 -28 -36 -53 -114 -100 -203 -190 -217 -217 -8
-16 -36 -57 -61 -89 l-46 -59 24 -19 c12 -10 20 -22 16 -26 -4 -4 -14 2 -22
12 -17 24 -25 18 -17 -12 3 -12 10 -19 15 -16 6 4 5 -3 -2 -16 -6 -12 -9 -28
-6 -35 3 -8 1 -17 -5 -21 -7 -4 -7 -10 0 -18 7 -9 7 -16 -2 -25 -10 -11 -9
-13 3 -9 8 3 14 15 13 27 -2 11 1 21 6 21 15 0 20 -27 8 -40 -9 -10 -9 -14 1
-17 6 -3 12 -17 12 -31 -1 -26 -1 -26 -15 -8 -8 10 -12 23 -9 27 3 5 -2 9 -10
9 -19 0 -21 -11 -5 -27 9 -9 8 -20 0 -45 -11 -31 -10 -35 15 -55 15 -11 33
-19 40 -16 8 3 17 -3 20 -13 12 -32 84 -92 84 -70 0 2 -16 21 -35 40 -45 47
-45 65 0 29 19 -15 35 -31 35 -35 0 -5 4 -8 9 -8 5 0 7 9 4 20 -3 11 -9 20
-13 20 -11 0 -110 94 -110 104 0 4 16 -6 35 -23 20 -17 39 -31 44 -31 4 0 25
-18 47 -40 21 -22 45 -40 52 -40 6 0 12 -4 12 -10 0 -5 -5 -10 -12 -10 -9 0
-9 -3 0 -12 9 -9 15 -9 24 0 7 7 17 12 22 12 6 0 0 -9 -13 -19 -24 -18 -24
-20 -8 -44 9 -14 26 -28 37 -32 11 -3 20 -11 20 -16 0 -5 19 -27 41 -49 44
-43 45 -47 7 -27 -26 13 -41 25 -94 75 -38 34 -55 43 -33 16 10 -13 10 -17 -2
-24 -10 -7 -16 -3 -22 15 -5 14 -12 25 -17 25 -4 0 0 -16 8 -35 9 -19 18 -33
20 -30 4 4 11 -1 56 -40 16 -14 33 -25 39 -25 28 0 116 -52 123 -72 6 -23 68
-106 89 -120 6 -5 4 -8 -6 -8 -8 0 -31 15 -51 33 -19 17 -46 38 -60 46 -24 12
-75 54 -215 178 -60 53 -80 82 -48 69 8 -3 15 -1 15 3 0 5 -7 11 -15 15 -8 3
-15 14 -15 25 0 14 -5 19 -15 15 -9 -4 -16 3 -21 20 -3 14 -10 24 -15 21 -4
-3 -13 4 -19 15 -6 11 -17 20 -24 20 -8 0 -19 7 -26 15 -15 18 -34 20 -23 3
12 -21 14 -138 1 -138 -7 0 -8 -14 -4 -42 4 -24 10 -61 12 -83 3 -22 9 -44 13
-50 12 -15 32 -97 35 -141 2 -21 8 -52 14 -67 7 -15 13 -86 15 -157 4 -120 6
-133 30 -167 14 -21 30 -63 36 -93 41 -216 65 -290 163 -490 59 -122 88 -202
88 -247 0 -29 -14 -29 -29 0 -9 17 -10 18 -6 2 4 -11 13 -65 21 -120 22 -142
36 -146 31 -7 -2 61 -2 112 1 112 3 0 11 -8 18 -17 23 -31 17 25 -10 82 -12
28 -29 68 -36 90 -7 22 -39 92 -71 156 -55 110 -76 188 -54 195 6 2 10 -11 10
-28 0 -18 6 -45 13 -60 16 -32 26 -37 17 -8 -11 35 9 21 28 -20 10 -22 17 -41
16 -42 -1 -2 28 -48 66 -102 62 -90 71 -108 92 -200 13 -55 37 -124 54 -152
16 -28 49 -97 73 -152 35 -82 55 -112 109 -169 36 -37 78 -84 92 -103 37 -49
147 -203 165 -230 25 -38 90 -120 95 -120 14 0 -187 291 -278 402 -36 44 -49
70 -24 50 14 -12 95 -35 117 -34 8 0 60 -6 115 -15 149 -22 367 -20 489 6 55
12 116 21 137 21 68 0 136 95 254 357 38 84 66 103 133 92 69 -11 93 -36 145
-149 64 -143 115 -229 164 -277 38 -36 47 -41 63 -31 14 9 28 9 60 -1 45 -13
273 -16 383 -5 154 15 260 35 352 66 94 31 102 36 130 78 17 25 43 84 58 133
27 80 47 111 47 70 -1 -63 -77 -390 -101 -436 -7 -12 -11 -23 -10 -25 2 -2
-25 -98 -37 -132 -3 -8 -6 -17 -7 -20 -1 -3 -4 -12 -8 -20 -11 -27 -37 -141
-36 -158 0 -9 22 55 48 143 27 88 58 187 70 220 48 133 81 264 91 360 6 55 20
130 31 166 13 43 19 87 17 127 l-3 63 -135 5 c-74 2 -166 6 -205 8 -49 2 -108
15 -200 46 -134 44 -261 68 -375 71 -48 1 -58 3 -40 9 14 4 42 8 63 9 20 1 84
12 142 26 57 13 131 25 164 26 50 2 58 4 44 14 -14 11 -14 12 0 18 9 3 42 2
74 -3 73 -12 79 -12 68 -1 -17 17 -208 31 -262 20 -24 -5 -36 -2 -49 12 -15
17 -18 17 -40 2 -13 -8 -24 -13 -24 -10 0 3 -16 1 -35 -3 -31 -7 -57 2 -38 13
5 2 1 2 -7 -1 -43 -13 -108 -22 -126 -17 -12 2 -39 -3 -60 -12 -22 -9 -42 -16
-46 -15 -12 3 -9 -13 4 -26 6 -6 9 -14 6 -17 -3 -3 -13 2 -23 12 -17 16 -17
16 -11 -5 6 -18 1 -25 -28 -39 -28 -13 -33 -19 -24 -30 6 -7 8 -16 4 -20 -3
-3 -6 -1 -6 5 0 16 -17 15 -23 -1 -5 -14 36 -18 49 -4 4 4 14 7 23 7 9 0 29 7
45 15 77 40 21 -21 -84 -92 -115 -78 -341 -109 -449 -62 -24 10 -49 19 -57 19
-7 0 -17 6 -21 13 -11 16 -42 33 -78 41 -17 4 -41 15 -55 26 -23 18 -24 20 -4
20 11 0 29 -7 40 -15 22 -17 34 -19 34 -6 0 5 -10 13 -22 17 -12 3 -42 19 -67
34 -42 26 -256 110 -277 110 -5 0 2 -9 16 -20 29 -23 12 -26 -33 -6 -18 8 -59
24 -92 36 -33 13 -69 27 -80 31 -53 24 -131 47 -139 42 -5 -4 -39 -7 -75 -8
-54 -2 -62 -1 -48 10 22 16 22 29 0 16 -46 -26 -47 -29 -34 -45 11 -13 11 -16
-3 -16 -9 0 -16 5 -16 10 0 6 -8 10 -17 10 -13 0 -14 -3 -5 -12 19 -19 14 -31
-9 -25 -15 4 -19 2 -15 -8 3 -8 -2 -19 -12 -24 -29 -16 -4 -25 37 -12 46 13
133 17 151 6 7 -4 33 -9 58 -11 25 -2 73 -12 106 -23 157 -49 169 -52 175 -42
5 7 48 -4 121 -30 63 -23 135 -47 160 -54 25 -8 65 -21 89 -30 24 -9 46 -14
48 -11 3 3 17 -6 31 -20 15 -13 33 -24 41 -24 8 0 12 -2 9 -5 -16 -16 -442
123 -464 151 -11 14 -34 19 -34 8 0 -3 7 -13 16 -22 16 -15 14 -17 -16 -25
-23 -6 -35 -5 -40 4 -10 15 -113 5 -220 -20 -47 -12 -81 -15 -92 -10 -9 5 -18
5 -20 0 -2 -4 -23 -15 -48 -24 l-45 -15 45 0 c54 0 169 19 189 32 8 5 51 13
95 17 101 9 121 -2 69 -38 -34 -23 -46 -25 -197 -29 -89 -2 -239 -11 -334 -20
-95 -8 -180 -13 -190 -10 -9 4 -32 34 -51 68 -36 66 -43 124 -22 181 6 16 11
42 11 59 0 26 24 84 41 98 11 9 33 55 34 70 0 8 6 15 12 15 20 0 45 43 38 65
-5 16 -3 19 11 13 13 -5 15 -2 10 14 -7 21 31 69 84 106 13 9 21 19 17 23 -3
3 -13 -1 -22 -10 -18 -18 -35 -21 -35 -6 0 6 5 10 11 10 7 0 17 7 24 16 11 15
14 15 39 -7 14 -13 25 -28 23 -34 -7 -18 47 -12 61 7 15 20 30 22 52 8 13 -9
13 -11 0 -21 -12 -9 -10 -10 8 -6 16 4 25 0 30 -11 7 -20 31 -41 97 -86 57
-39 178 -101 215 -110 24 -7 25 -7 5 9 -11 9 -56 35 -99 57 -84 42 -159 88
-164 101 -2 4 -10 7 -17 7 -13 0 -29 29 -21 38 3 2 18 1 33 -3 33 -10 83 -12
83 -4 0 3 -5 10 -11 16 -9 9 -7 10 10 6 11 -3 21 -10 21 -15 0 -5 5 -6 10 -3
8 5 7 11 -1 21 -9 11 -6 14 17 15 16 1 39 0 52 -1 30 -2 28 16 -3 24 -20 5
-24 10 -17 23 5 9 22 17 36 19 15 1 41 17 58 33 18 17 39 31 48 31 9 0 25 9
35 20 13 14 22 17 29 10 6 -6 15 -5 27 6 16 14 20 14 42 -1 18 -11 27 -13 32
-5 4 6 13 9 21 6 14 -5 64 37 64 54 0 4 32 8 70 8 39 0 70 -4 70 -9 0 -5 -4
-9 -10 -9 -5 0 -10 -7 -10 -15 0 -19 19 -20 26 -1 3 8 11 13 18 10 16 -6 139
114 130 127 -3 5 8 26 24 47 16 20 42 57 57 82 41 64 85 95 85 59 0 -6 -4 -7
-10 -4 -5 3 -10 2 -10 -4 0 -5 6 -12 13 -14 9 -4 8 -8 -3 -16 -8 -6 -11 -11
-7 -11 5 0 20 9 34 20 15 11 34 18 43 15 11 -3 20 1 24 10 3 8 10 15 16 15 6
0 8 -5 4 -11 -4 -7 -1 -10 7 -7 8 3 13 13 13 22 -1 12 3 15 16 11 13 -4 20 0
25 15 7 23 43 27 64 8 11 -11 13 -10 8 3 -3 9 0 22 6 28 12 12 31 15 24 4 -3
-5 1 -14 9 -21 8 -7 14 -10 14 -6 0 3 7 1 15 -6 10 -9 15 -9 15 -1 0 6 5 11
11 11 6 0 9 -7 5 -15 -6 -17 9 -21 19 -5 10 16 25 12 19 -5 -5 -11 -2 -13 10
-9 9 3 16 1 16 -5 0 -8 6 -9 18 -2 14 7 25 6 40 -5 20 -14 21 -13 15 3 -7 17
-6 17 20 0 15 -9 27 -13 27 -7 0 5 5 10 11 10 6 0 9 -6 6 -14 -7 -18 12 -36
31 -28 11 4 14 1 9 -11 -3 -9 -2 -17 3 -17 6 0 10 12 10 26 0 23 2 25 15 14 9
-8 13 -22 10 -34 -5 -20 -5 -20 4 -1 5 11 12 29 16 40 7 19 7 19 16 -3 4 -12
6 -30 3 -40 -2 -9 1 -7 7 6 12 23 36 25 31 3 -1 -7 2 -10 8 -6 5 3 10 15 10
25 0 20 17 36 28 26 3 -4 0 -16 -7 -27 -16 -27 -5 -38 16 -16 16 15 19 15 50
-9 19 -14 30 -19 27 -10 -8 21 17 32 28 12 5 -9 15 -16 23 -16 7 0 17 -9 20
-20 3 -11 10 -20 15 -20 4 0 24 -15 43 -34 19 -18 41 -36 48 -39 12 -5 12 -7
0 -15 -8 -6 -9 -12 -3 -16 5 -3 15 1 22 9 17 20 30 19 24 -2 -2 -10 1 -8 7 5
7 12 15 22 19 22 13 0 19 -55 7 -62 -9 -5 -7 -12 5 -24 16 -16 17 -16 12 3 -4
12 0 22 8 26 11 4 14 -4 13 -29 -1 -27 8 -45 40 -81 22 -25 40 -48 40 -52 0
-3 4 -12 8 -18 5 -8 3 -13 -6 -13 -12 0 -9 -16 14 -77 16 -43 29 -81 29 -85 0
-4 18 -45 40 -90 36 -76 78 -240 81 -318 1 -32 -8 -115 -16 -139 -7 -23 0 -29
51 -36 26 -4 45 -1 57 9 18 14 18 17 1 78 -9 34 -21 67 -25 73 -5 5 -9 20 -9
35 l1 25 15 -27 c18 -35 32 -35 44 -2 7 18 6 39 -4 72 -36 116 -45 200 -27
258 37 121 63 243 59 279 -1 19 1 37 5 41 4 4 7 21 7 37 0 32 12 82 37 160 8
26 12 54 9 63 -3 9 0 30 8 47 8 18 19 48 25 67 6 19 17 57 25 84 14 42 14 46
1 36 -8 -7 -15 -19 -15 -26 0 -8 -7 -14 -14 -14 -13 0 -13 5 1 38 8 20 18 42
21 47 30 47 37 92 42 270 3 131 -19 295 -41 295 -4 0 -15 24 -24 53 -10 28
-23 59 -30 67 -7 8 -16 26 -20 40 -11 34 -46 88 -89 134 -20 21 -36 41 -36 45
0 15 -149 162 -189 186 l-44 27 -18 -23 c-17 -23 -18 -23 -25 -5 -7 18 -8 17
-17 -5 -6 -13 -9 -28 -8 -32 1 -5 -4 -7 -11 -5 -7 3 -13 16 -14 29 -1 49 -3
54 -16 41 -8 -8 -8 -15 1 -26 8 -9 8 -16 2 -20 -6 -4 -8 -13 -4 -21 7 -21 -14
-19 -26 2 -5 10 -13 15 -17 11 -4 -4 -1 -14 6 -23 8 -10 9 -15 1 -15 -6 0 -11
5 -11 11 0 6 -7 8 -16 5 -9 -4 -23 -1 -30 5 -11 9 -14 8 -14 -1 0 -8 -6 -9
-17 -5 -10 4 -26 7 -35 7 -10 0 -18 3 -18 9 0 5 -7 9 -15 9 -8 0 -15 5 -15 10
0 12 -47 33 -72 32 -10 0 -20 3 -22 7 -8 12 -67 0 -73 -15 -7 -19 -33 -18 -33
1 0 8 -5 15 -11 15 -6 0 -8 -7 -5 -15 3 -9 0 -24 -6 -35 -9 -14 -9 -22 2 -34
16 -20 12 -24 -28 -32 -26 -5 -32 -3 -32 11 0 10 11 28 25 41 28 26 32 49 11
57 -10 4 -13 1 -9 -9 7 -19 -11 -18 -27 1 -7 9 -19 14 -26 11 -7 -3 -16 -1
-19 4 -8 14 -59 12 -72 -1 -7 -7 -19 -8 -30 -4 -26 11 -104 14 -129 5 -12 -5
-39 -31 -60 -59 -22 -28 -43 -50 -47 -51 -10 0 21 54 46 80 9 11 17 23 17 28
0 13 -216 15 -240 2 -10 -5 -21 -24 -25 -42 -10 -46 -46 -108 -63 -108 -12 0
-12 4 1 24 9 13 24 48 35 79 l18 54 -145 1 c-138 0 -148 -1 -183 -24 -21 -13
-38 -20 -38 -15 0 6 5 13 10 16 12 8 13 25 1 25 -4 0 -25 -11 -46 -25 -20 -15
-40 -23 -44 -20 -3 4 2 11 12 16 9 6 15 14 12 18 -6 10 -500 11 -565 1z m1527
-45 c-2 -34 -27 -52 -27 -20 0 13 21 55 27 55 1 0 1 -16 0 -35z m233 26 c0 -6
-4 -13 -10 -16 -5 -3 -10 1 -10 9 0 9 5 16 10 16 6 0 10 -4 10 -9z m-260 -11
c0 -5 -4 -10 -9 -10 -6 0 -13 5 -16 10 -3 6 1 10 9 10 9 0 16 -4 16 -10z
m-930 -15 c11 10 23 15 27 12 3 -4 4 -8 2 -10 -2 -1 -30 -20 -62 -41 -55 -37
-59 -38 -75 -22 -16 17 -15 19 17 47 33 27 36 28 53 12 17 -15 19 -15 38 2z
m1004 -17 c7 -5 4 -12 -9 -22 -18 -13 -20 -13 -23 5 -2 11 0 28 3 37 6 14 8
15 13 2 3 -8 10 -18 16 -22z m662 -24 c27 -31 82 -93 123 -138 79 -87 107
-124 99 -132 -3 -2 -27 21 -53 53 -67 81 -135 144 -147 137 -6 -4 -5 -10 3
-15 7 -4 10 -11 6 -16 -10 -10 -28 18 -22 34 7 20 -16 73 -32 73 -8 0 -11 4
-8 10 3 5 -3 15 -15 22 -21 13 -27 28 -11 28 5 0 31 -25 57 -56z m-916 36 c0
-5 -5 -10 -11 -10 -5 0 -7 5 -4 10 3 6 8 10 11 10 2 0 4 -4 4 -10z m354 -6 c9
-22 8 -24 -9 -24 -8 0 -15 9 -15 20 0 24 15 27 24 4z m-205 -11 c17 -10 31
-21 31 -25 0 -5 6 -8 14 -8 8 0 13 -11 12 -30 -1 -23 -6 -30 -21 -30 -20 -1
-20 -1 0 -18 28 -23 39 -52 19 -52 -8 0 -17 7 -20 15 -4 8 -12 15 -19 15 -16
0 -28 28 -18 43 4 6 0 8 -10 4 -10 -3 -17 -2 -17 3 0 10 6 12 39 14 20 2 26
26 7 26 -9 0 -19 7 -22 15 -3 8 -14 17 -25 20 -19 6 -27 25 -10 25 5 0 23 -8
40 -17z m256 0 c-4 -10 -7 -26 -7 -35 0 -10 -4 -18 -10 -18 -6 0 -8 10 -4 23
3 12 6 28 6 35 0 6 5 12 11 12 7 0 8 -7 4 -17z m-1060 -3 c3 -5 2 -10 -4 -10
-5 0 -13 5 -16 10 -3 6 -2 10 4 10 5 0 13 -4 16 -10z m-25 -18 c0 -13 -12 -22
-22 -16 -10 6 -1 24 13 24 5 0 9 -4 9 -8z m810 -34 c0 -5 -4 -8 -10 -8 -5 0
-10 5 -10 11 0 6 -8 8 -18 5 -10 -4 -27 1 -38 9 -14 11 -15 14 -3 9 10 -3 20
-1 24 5 6 11 54 -16 55 -31z m-1620 17 c0 -8 -9 -15 -20 -15 -11 0 -20 7 -20
15 0 8 9 15 20 15 11 0 20 -7 20 -15z m27 -25 c0 -29 -10 -39 -21 -22 -7 11 4
52 13 52 4 0 8 -13 8 -30z m1549 -10 c9 0 12 -5 9 -11 -4 -5 -12 -8 -18 -6 -7
2 -20 0 -30 -5 -28 -15 -31 -3 -5 21 12 12 24 17 26 11 2 -5 10 -10 18 -10z
m164 -1 c0 -5 -4 -9 -10 -9 -5 0 -10 7 -10 16 0 8 5 12 10 9 6 -3 10 -10 10
-16z m107 -1 c-3 -8 -6 -5 -6 6 -1 11 2 17 5 13 3 -3 4 -12 1 -19z m-2167 -9
c0 -5 -4 -9 -10 -9 -5 0 -10 7 -10 16 0 8 5 12 10 9 6 -3 10 -10 10 -16z m40
6 c0 -1 -7 -8 -15 -15 -13 -10 -15 -9 -15 8 0 15 5 20 15 16 8 -4 15 -7 15 -9z
m519 -29 c44 -66 46 -74 6 -33 -21 21 -48 43 -61 48 -31 11 -30 24 1 25 19 2
32 -8 54 -40z m1176 35 c3 -5 1 -12 -5 -16 -5 -3 -10 1 -10 9 0 18 6 21 15 7z
m713 -9 c6 -18 -15 -14 -22 4 -4 10 -1 14 6 12 6 -2 14 -10 16 -16z m72 -3 c0
-5 -5 -7 -11 -4 -6 4 -16 -1 -24 -11 -7 -11 -17 -15 -22 -11 -9 10 24 37 44
37 7 0 13 -5 13 -11z m-2542 -15 c29 -20 28 -27 -9 -63 -17 -17 -25 -31 -18
-31 6 0 23 12 36 26 14 16 30 24 39 20 14 -5 12 -10 -8 -31 -12 -14 -27 -25
-33 -25 -5 0 -21 -9 -35 -20 -28 -22 -39 -24 -60 -10 -11 7 -8 14 20 39 19 16
32 33 28 37 -7 6 -14 0 -52 -44 -15 -17 -16 -25 -7 -36 17 -20 1 -49 -19 -36
-12 8 -12 10 5 10 13 0 16 3 9 10 -15 15 -46 1 -40 -17 9 -22 -18 -45 -35 -30
-10 9 -10 8 1 -6 12 -16 12 -20 -1 -28 -8 -5 -11 -9 -6 -9 4 0 -3 -17 -16 -37
-12 -21 -33 -59 -46 -85 -26 -51 -47 -64 -37 -22 9 33 -30 70 -51 48 -17 -16
-16 -21 1 -27 10 -4 13 -1 9 9 -7 18 11 18 26 1 8 -10 6 -19 -10 -35 -21 -23
-49 -29 -49 -11 0 5 5 7 10 4 6 -3 15 -3 21 1 7 4 2 11 -13 18 -26 14 -41 2
-32 -26 6 -19 -11 -25 -21 -8 -8 13 37 90 52 90 7 0 15 10 18 23 4 13 20 34
36 48 110 88 211 188 203 201 -4 7 -2 8 5 4 15 -10 43 13 37 30 -3 8 0 11 10
7 17 -6 18 -20 2 -26 -7 -2 -10 -8 -5 -13 4 -4 14 -1 22 7 14 13 13 17 -5 37
-24 26 -14 29 18 6z m102 6 c0 -5 -5 -10 -11 -10 -5 0 -7 -4 -4 -10 3 -5 -1
-10 -10 -10 -9 0 -13 -4 -10 -10 3 -6 -1 -7 -9 -4 -21 8 -20 12 7 35 25 21 37
24 37 9z m2014 -22 c-10 -16 -22 -7 -17 13 4 15 8 17 14 8 4 -7 5 -17 3 -21z
m-384 15 c-1 -5 -12 -21 -25 -38 -19 -23 -25 -26 -25 -12 0 9 4 17 9 17 5 0
13 9 16 20 6 19 25 29 25 13z m86 -19 c-40 -36 -26 -40 28 -9 25 15 46 23 46
18 0 -13 -125 -103 -143 -103 -9 0 -19 -4 -22 -10 -9 -15 -25 -12 -25 5 0 7 8
19 18 24 9 6 12 11 6 11 -6 0 -26 -13 -45 -29 -18 -17 -35 -28 -36 -27 -5 5
24 57 30 54 3 -2 15 6 27 17 12 11 24 15 28 10 4 -6 14 -16 23 -23 14 -10 18
-10 23 3 3 10 2 13 -5 10 -17 -11 -41 15 -28 31 6 7 16 11 22 9 7 -3 23 4 37
15 36 29 50 24 16 -6z m159 -11 c27 -30 31 -43 14 -43 -6 0 -13 9 -16 20 -3
11 -14 20 -24 20 -11 0 -19 7 -19 15 0 23 16 18 45 -12z m483 15 c14 -14 16
-48 3 -48 -8 0 -41 43 -41 55 0 10 26 5 38 -7z m-2518 -8 c0 -5 -2 -10 -4 -10
-3 0 -8 5 -11 10 -3 6 -1 10 4 10 6 0 11 -4 11 -10z m430 -11 c0 -6 -4 -7 -10
-4 -14 9 -12 -8 3 -24 10 -11 8 -11 -10 -2 -19 10 -21 14 -11 31 12 19 28 18
28 -1z m1586 -29 c8 0 14 -9 14 -21 0 -11 4 -18 9 -14 10 6 26 -13 18 -21 -9
-10 -67 26 -67 41 0 20 -36 19 -44 -1 -3 -8 -11 -12 -17 -9 -7 5 0 18 18 37
28 29 28 29 42 9 7 -12 20 -21 27 -21z m389 30 c3 -5 1 -10 -4 -10 -6 0 -11 5
-11 10 0 6 2 10 4 10 3 0 8 -4 11 -10z m83 -24 c3 -12 -1 -17 -10 -14 -7 3
-15 13 -16 22 -3 12 1 17 10 14 7 -3 15 -13 16 -22z m392 -8 c0 -6 -7 -5 -15
2 -8 7 -15 17 -15 22 0 6 7 5 15 -2 8 -7 15 -17 15 -22z m-2410 12 c0 -5 -4
-10 -9 -10 -6 0 -13 5 -16 10 -3 6 1 10 9 10 9 0 16 -4 16 -10z m1750 -5 c0
-8 -4 -15 -10 -15 -5 0 -10 7 -10 15 0 8 5 15 10 15 6 0 10 -7 10 -15z m-1940
-20 c15 -18 40 -20 40 -3 0 9 3 9 11 1 8 -8 6 -17 -9 -33 l-20 -22 -31 23
c-32 23 -36 31 -24 42 10 11 19 8 33 -8z m220 -15 c0 -5 -2 -10 -4 -10 -3 0
-8 5 -11 10 -3 6 -1 10 4 10 6 0 11 -4 11 -10z m1501 -20 c31 -27 32 -30 12
-30 -14 0 -23 6 -23 15 0 17 -16 20 -25 5 -3 -5 -1 -10 4 -10 6 0 11 -4 11
-10 0 -16 -17 -11 -24 6 -6 15 0 54 8 54 2 0 19 -13 37 -30z m94 20 c3 -5 2
-10 -4 -10 -5 0 -13 5 -16 10 -3 6 -2 10 4 10 5 0 13 -4 16 -10z m-1865 -10
c0 -5 -4 -10 -10 -10 -5 0 -10 5 -10 10 0 6 5 10 10 10 6 0 10 -4 10 -10z
m935 -12 c7 -7 2 -8 -15 -3 -14 4 -29 12 -35 17 -7 7 -2 8 15 3 14 -4 30 -12
35 -17z m1015 18 c0 -3 -4 -8 -10 -11 -5 -3 -10 -1 -10 4 0 6 5 11 10 11 6 0
10 -2 10 -4z m270 -26 c0 -11 -4 -20 -10 -20 -5 0 -10 9 -10 20 0 11 5 20 10
20 6 0 10 -9 10 -20z m-2250 -4 c0 -11 -19 -15 -25 -6 -3 5 1 10 9 10 9 0 16
-2 16 -4z m65 -6 c3 -5 1 -10 -4 -10 -6 0 -11 5 -11 10 0 6 2 10 4 10 3 0 8
-4 11 -10z m750 0 c3 -5 2 -10 -4 -10 -5 0 -13 5 -16 10 -3 6 -2 10 4 10 5 0
13 -4 16 -10z m215 0 c24 -15 7 -19 -25 -5 -23 10 -25 14 -10 14 11 0 27 -3
35 -9z m910 0 c0 -5 -4 -10 -9 -10 -6 0 -13 5 -16 10 -3 6 1 10 9 10 9 0 16
-4 16 -10z m387 -36 c-3 -3 -12 -4 -19 -1 -8 3 -5 6 6 6 11 1 17 -2 13 -5z
m-2097 -8 c0 -3 -4 -8 -10 -11 -5 -3 -10 -1 -10 4 0 6 5 11 10 11 6 0 10 -2
10 -4z m70 -4 c0 -10 -46 -10 -56 1 -4 4 7 7 24 7 18 0 32 -4 32 -8z m1514 -8
c9 -24 2 -26 -12 -4 -7 11 -8 20 -3 20 5 0 12 -7 15 -16z m-748 -24 c41 -20
37 -24 -15 -14 -17 4 -31 13 -31 20 0 18 -1 18 46 -6z m444 10 c0 -5 -5 -10
-11 -10 -5 0 -7 5 -4 10 3 6 8 10 11 10 2 0 4 -4 4 -10z m-1315 -10 c-3 -5
-11 -10 -16 -10 -6 0 -7 5 -4 10 3 6 11 10 16 10 6 0 7 -4 4 -10z m40 -22 c14
-6 25 -15 25 -20 0 -11 -37 -10 -44 1 -3 5 -14 8 -24 6 -9 -1 -11 0 -4 2 6 3
12 9 12 14 0 12 4 11 35 -3z m1385 -18 c0 -5 -4 -10 -10 -10 -5 0 -10 5 -10
10 0 6 5 10 10 10 6 0 10 -4 10 -10z m-30 -35 c-7 -9 -15 -13 -17 -11 -7 7 7
26 19 26 6 0 6 -6 -2 -15z m797 -7 c-3 -8 -6 -5 -6 6 -1 11 2 17 5 13 3 -3 4
-12 1 -19z m-2277 -9 c0 -5 -4 -9 -10 -9 -5 0 -10 7 -10 16 0 8 5 12 10 9 6
-3 10 -10 10 -16z m285 11 c3 -5 -1 -10 -9 -10 -8 0 -18 5 -21 10 -3 6 1 10 9
10 8 0 18 -4 21 -10z m-165 -4 c0 -3 -4 -8 -10 -11 -5 -3 -10 -1 -10 4 0 6 5
11 10 11 6 0 10 -2 10 -4z m-154 -43 c-8 -9 -37 18 -30 28 3 5 12 2 21 -6 8
-9 13 -19 9 -22z m114 17 c0 -5 -4 -10 -10 -10 -5 0 -10 5 -10 10 0 6 5 10 10
10 6 0 10 -4 10 -10z m-167 -27 c-18 -50 -53 -81 -53 -48 0 8 5 15 10 15 6 0
16 11 22 25 13 28 31 35 21 8z m353 -7 c-1 -18 -4 -22 -13 -14 -6 5 -9 16 -6
24 8 23 21 16 19 -10z m-127 -10 c14 -8 31 -12 38 -9 7 3 13 0 13 -6 0 -6 15
-11 33 -11 17 0 39 -5 47 -11 12 -8 12 -9 -5 -7 -11 1 -26 -2 -34 -7 -10 -5
-16 -4 -19 4 -3 9 -7 9 -20 -1 -12 -10 -16 -10 -19 0 -3 6 -11 12 -19 12 -21
0 -65 31 -58 41 7 12 14 11 43 -5z m1051 -1 c18 -10 20 -14 8 -15 -23 0 -48
11 -48 21 0 12 11 11 40 -6z m-880 -5 c0 -5 -4 -10 -10 -10 -5 0 -10 5 -10 10
0 6 5 10 10 10 6 0 10 -4 10 -10z m865 -40 c3 -5 -1 -10 -9 -10 -9 0 -16 5
-16 10 0 6 4 10 9 10 6 0 13 -4 16 -10z m-865 -21 c0 -11 -4 -17 -10 -14 -5 3
-10 13 -10 21 0 8 5 14 10 14 6 0 10 -9 10 -21z m-970 -9 c0 -5 -4 -10 -10
-10 -5 0 -10 5 -10 10 0 6 5 10 10 10 6 0 10 -4 10 -10z m820 -5 c-12 -15 -30
-12 -30 6 0 5 10 9 21 9 18 0 19 -2 9 -15z m-270 -3 c0 -5 10 -14 23 -20 l22
-11 -22 0 c-13 -1 -23 -4 -23 -8 0 -13 -73 -58 -87 -55 -7 2 -24 -9 -37 -23
-29 -31 -41 -32 -25 -2 14 25 86 97 98 97 5 0 14 7 21 15 14 16 30 20 30 7z
m70 4 c0 -3 -4 -8 -10 -11 -5 -3 -10 -1 -10 4 0 6 5 11 10 11 6 0 10 -2 10 -4z
m240 0 c0 -2 -7 -9 -15 -16 -13 -11 -14 -10 -9 4 5 14 24 23 24 12z m930 -5
c0 -5 -7 -11 -15 -15 -15 -5 -20 5 -8 17 9 10 23 9 23 -2z m-1130 -11 c0 -5
-5 -10 -11 -10 -5 0 -7 5 -4 10 3 6 8 10 11 10 2 0 4 -4 4 -10z m96 -11 c-14
-11 -32 -19 -39 -16 -6 2 2 11 18 19 43 23 52 21 21 -3z m989 11 c3 -5 -1 -10
-9 -10 -9 0 -16 5 -16 10 0 6 4 10 9 10 6 0 13 -4 16 -10z m-1790 -20 c3 -5 1
-10 -4 -10 -6 0 -11 5 -11 10 0 6 2 10 4 10 3 0 8 -4 11 -10z m3580 0 c3 -5 1
-10 -4 -10 -6 0 -11 5 -11 10 0 6 2 10 4 10 3 0 8 -4 11 -10z m-3272 -34 c11
-9 14 -17 8 -20 -6 -4 -7 -14 -4 -23 4 -11 3 -14 -5 -9 -7 4 -12 14 -12 23 0
11 -5 9 -21 -8 -18 -21 -20 -21 -14 -4 4 11 10 28 12 38 6 20 12 21 36 3z
m512 4 c3 -5 -1 -10 -9 -10 -9 0 -16 5 -16 10 0 6 4 10 9 10 6 0 13 -4 16 -10z
m-155 -55 c-25 -25 -55 -48 -68 -52 -12 -3 -33 -18 -46 -34 -25 -29 -39 -29
-29 -1 9 27 46 58 101 86 28 14 53 30 57 36 3 5 11 10 18 10 6 0 -9 -20 -33
-45z m120 37 c0 -11 -42 -36 -72 -43 -43 -10 -33 6 12 20 22 6 40 16 40 21 0
6 5 10 10 10 6 0 10 -3 10 -8z m-193 -18 c-3 -3 -12 -4 -19 -1 -8 3 -5 6 6 6
11 1 17 -2 13 -5z m-37 -24 c0 -5 -5 -10 -10 -10 -6 0 -26 -16 -46 -36 -19
-20 -37 -34 -40 -32 -6 6 75 88 87 88 5 0 9 -4 9 -10z m-560 -20 c0 -5 -2 -10
-4 -10 -3 0 -8 5 -11 10 -3 6 -1 10 4 10 6 0 11 -4 11 -10z m713 0 c6 0 -2
-13 -17 -29 -16 -16 -34 -27 -41 -25 -7 3 -16 0 -20 -5 -3 -6 -11 -9 -16 -5
-14 8 53 74 69 68 8 -2 19 -4 25 -4z m-436 -30 c-1 -22 -17 -28 -17 -7 0 12 9
27 16 27 2 0 2 -9 1 -20z m-138 -26 c24 -40 25 -44 11 -44 -5 0 -10 6 -10 13
0 7 -9 18 -20 25 -11 7 -20 19 -20 27 0 26 17 17 39 -21z m61 16 c0 -5 -4 -10
-10 -10 -5 0 -10 5 -10 10 0 6 5 10 10 10 6 0 10 -4 10 -10z m515 -10 c-3 -5
-11 -10 -16 -10 -6 0 -7 5 -4 10 3 6 11 10 16 10 6 0 7 -4 4 -10z m-553 -101
c1 -8 -2 -15 -7 -17 -6 -1 -11 6 -13 18 -2 11 -9 20 -15 20 -19 1 -70 57 -62
69 7 12 91 -66 97 -90z m78 71 c0 -11 -2 -20 -4 -20 -2 0 -6 9 -9 20 -3 11 -1
20 4 20 5 0 9 -9 9 -20z m160 -1 c0 -5 -4 -9 -10 -9 -5 0 -10 7 -10 16 0 8 5
12 10 9 6 -3 10 -10 10 -16z m-360 -4 c7 -9 8 -15 2 -15 -5 0 -12 7 -16 15 -3
8 -4 15 -2 15 2 0 9 -7 16 -15z m166 -12 c-7 -7 -26 7 -26 19 0 6 6 6 15 -2 9
-7 13 -15 11 -17z m534 -16 c0 -10 -5 -15 -11 -12 -6 4 -8 14 -5 22 4 9 1 13
-6 10 -7 -2 -12 -14 -10 -27 1 -16 -2 -21 -13 -17 -8 4 -18 1 -22 -6 -8 -12
-47 -37 -58 -37 -14 0 -2 18 15 23 23 6 27 27 6 27 -24 0 -30 21 -7 27 12 3
21 9 21 14 0 5 7 9 15 9 18 0 20 -17 3 -23 -7 -2 -10 -7 -7 -11 4 -4 19 5 34
20 22 22 29 24 36 13 5 -8 9 -22 9 -32z m-460 13 c0 -5 -4 -10 -10 -10 -5 0
-10 5 -10 10 0 6 5 10 10 10 6 0 10 -4 10 -10z m-235 -20 c3 -5 1 -10 -4 -10
-6 0 -11 5 -11 10 0 6 2 10 4 10 3 0 8 -4 11 -10z m160 -18 c-3 -3 -11 0 -18
7 -9 10 -8 11 6 5 10 -3 15 -9 12 -12z m-120 -2 c3 -5 1 -10 -4 -10 -6 0 -11
5 -11 10 0 6 2 10 4 10 3 0 8 -4 11 -10z m299 -48 c-6 -14 -8 -13 -14 8 -9 31
0 48 12 26 5 -10 6 -25 2 -34z m-379 27 c11 -17 -1 -21 -15 -4 -8 9 -8 15 -2
15 6 0 14 -5 17 -11z m235 -10 c0 -6 -4 -7 -10 -4 -5 3 -10 11 -10 16 0 6 5 7
10 4 6 -3 10 -11 10 -16z m-110 1 c0 -5 -4 -10 -9 -10 -6 0 -13 5 -16 10 -3 6
1 10 9 10 9 0 16 -4 16 -10z m67 -14 c-3 -8 -1 -17 6 -20 9 -3 8 -8 -3 -15
-13 -10 -13 -12 0 -20 8 -6 11 -13 7 -17 -12 -12 -38 17 -28 30 6 7 8 22 4 34
-3 14 -1 22 7 22 7 0 10 -6 7 -14z m-197 -16 c0 -5 -2 -10 -4 -10 -3 0 -8 5
-11 10 -3 6 -1 10 4 10 6 0 11 -4 11 -10z m45 -1 c11 -17 -1 -21 -15 -4 -8 9
-8 15 -2 15 6 0 14 -5 17 -11z m123 -6 c6 -19 -25 -16 -32 3 -4 11 -1 14 11
12 9 -2 18 -9 21 -15z m-158 -73 c7 -13 7 -20 1 -20 -6 0 -8 -7 -5 -15 4 -8 1
-15 -5 -15 -6 0 -11 3 -12 8 0 4 -2 19 -4 35 -4 32 10 36 25 7z m40 -40 c0 -5
-4 -10 -10 -10 -5 0 -10 5 -10 10 0 6 5 10 10 10 6 0 10 -4 10 -10z m230 -9
c0 -5 -6 -12 -12 -14 -10 -4 -9 -8 2 -16 9 -7 10 -11 3 -11 -17 0 -24 15 -17
34 7 17 24 22 24 7z m-270 -32 c0 -5 -4 -9 -10 -9 -5 0 -10 7 -10 16 0 8 5 12
10 9 6 -3 10 -10 10 -16z m80 -1 c0 -13 -23 -5 -28 10 -2 7 2 10 12 6 9 -3 16
-11 16 -16z m-45 -54 c-2 -43 2 -61 16 -75 22 -22 42 -59 35 -66 -8 -8 -26 7
-26 21 0 8 -7 19 -15 26 -13 11 -14 10 -10 -2 7 -16 -31 -55 -43 -43 -4 4 -1
10 6 12 16 6 16 24 0 21 -14 -3 -36 87 -25 99 4 3 15 -1 25 -10 18 -16 19 -16
17 15 -2 39 5 69 14 63 4 -2 7 -30 6 -61z m-39 9 c-7 -7 -26 7 -26 19 0 6 6 6
15 -2 9 -7 13 -15 11 -17z m116 -25 c26 -28 48 -55 48 -59 0 -4 9 -11 20 -14
20 -6 28 -25 11 -25 -14 0 -141 126 -141 139 0 20 13 12 62 -41z m116 0 c19
-19 14 -30 -8 -18 -11 6 -20 15 -20 20 0 14 14 12 28 -2z m117 -8 c3 -5 1 -10
-4 -10 -6 0 -11 5 -11 10 0 6 2 10 4 10 3 0 8 -4 11 -10z m-262 -20 c3 -11 2
-22 -3 -25 -11 -7 -33 22 -25 35 10 16 22 12 28 -10z m31 -59 c-9 -10 -26 18
-18 30 5 9 9 8 14 -7 4 -10 6 -21 4 -23z m2026 35 c0 -2 -7 -7 -16 -10 -8 -3
-12 -2 -9 4 6 10 25 14 25 6z m-1755 -36 c3 -5 1 -10 -4 -10 -6 0 -11 5 -11
10 0 6 2 10 4 10 3 0 8 -4 11 -10z m61 -26 c22 -8 58 -25 82 -36 l44 -21 60
32 c97 50 83 27 -18 -30 -25 -13 -46 -18 -63 -14 -52 13 -151 60 -151 73 0 15
0 15 46 -4z m-406 -10 c0 -7 -27 -34 -34 -34 -4 0 -1 9 6 20 12 19 28 27 28
14z m2473 -19 c-3 -9 -8 -14 -10 -11 -3 3 -2 9 2 15 9 16 15 13 8 -4z m-2365
-27 c59 -39 56 -37 50 -43 -8 -8 -62 22 -88 50 -32 34 -18 32 38 -7z m-73 11
c11 -17 -1 -21 -15 -4 -8 9 -8 15 -2 15 6 0 14 -5 17 -11z m2680 0 c11 -17 -1
-21 -15 -4 -8 9 -8 15 -2 15 6 0 14 -5 17 -11z m-2715 -39 c0 -5 -2 -10 -4
-10 -3 0 -8 5 -11 10 -3 6 -1 10 4 10 6 0 11 -4 11 -10z m190 -30 c0 -5 -2
-10 -4 -10 -3 0 -8 5 -11 10 -3 6 -1 10 4 10 6 0 11 -4 11 -10z m2730 -40 c0
-5 -7 -10 -15 -10 -8 0 -15 5 -15 10 0 6 7 10 15 10 8 0 15 -4 15 -10z m-2855
-40 c3 -5 1 -10 -4 -10 -6 0 -11 5 -11 10 0 6 2 10 4 10 3 0 8 -4 11 -10z m50
-10 c3 -5 1 -10 -4 -10 -6 0 -11 5 -11 10 0 6 2 10 4 10 3 0 8 -4 11 -10z m79
-11 c-6 -11 -24 -2 -24 11 0 5 7 7 15 4 8 -4 12 -10 9 -15z m156 11 c0 -12 -8
-12 -35 0 -18 8 -17 9 8 9 15 1 27 -3 27 -9z m-35 -24 c22 -14 60 -35 85 -47
30 -14 39 -23 29 -26 -9 -2 -33 5 -53 16 -20 12 -52 30 -71 41 -20 11 -49 20
-65 20 -17 0 -30 5 -30 10 0 19 65 10 105 -14z m-45 -25 c0 -12 -29 -41 -41
-41 -5 0 1 11 13 25 24 27 28 30 28 16z m1352 -53 c-7 -7 -12 -8 -12 -2 0 14
12 26 19 19 2 -3 -1 -11 -7 -17z m1444 -25 c-7 -7 -26 7 -26 19 0 6 6 6 15 -2
9 -7 13 -15 11 -17z m-3029 -29 c-9 -9 -28 6 -21 18 4 6 10 6 17 -1 6 -6 8
-13 4 -17z m999 -151 c-10 -10 -19 5 -10 18 6 11 8 11 12 0 2 -7 1 -15 -2 -18z
m-26 -13 c0 -5 -4 -10 -10 -10 -5 0 -10 5 -10 10 0 6 5 10 10 10 6 0 10 -4 10
-10z m-259 -33 c-11 -11 -41 -3 -41 11 0 5 12 7 26 4 17 -3 22 -8 15 -15z
m146 7 c-3 -3 -12 -4 -19 -1 -8 3 -5 6 6 6 11 1 17 -2 13 -5z m-307 -14 c0 -5
-4 -10 -10 -10 -5 0 -10 5 -10 10 0 6 5 10 10 10 6 0 10 -4 10 -10z m350 0 c0
-5 -4 -10 -9 -10 -6 0 -13 5 -16 10 -3 6 1 10 9 10 9 0 16 -4 16 -10z m-355
-30 c-3 -5 -10 -10 -16 -10 -5 0 -9 5 -9 10 0 6 7 10 16 10 8 0 12 -4 9 -10z
m2640 -80 c3 -5 1 -10 -4 -10 -6 0 -11 5 -11 10 0 6 2 10 4 10 3 0 8 -4 11
-10z m-3066 -174 c2 -33 -17 -5 -27 41 -5 23 -7 45 -3 48 7 7 29 -58 30 -89z
m26 64 c3 -5 1 -10 -4 -10 -6 0 -11 5 -11 10 0 6 2 10 4 10 3 0 8 -4 11 -10z
m5 -53 c0 -5 -4 -5 -10 -2 -5 3 -10 14 -10 23 0 15 2 15 10 2 5 -8 10 -19 10
-23z m2650 -147 c0 -5 -5 -10 -11 -10 -5 0 -7 5 -4 10 3 6 8 10 11 10 2 0 4
-4 4 -10z m-203 -127 c55 -5 176 -43 253 -78 l35 -16 -45 7 c-25 4 -108 9
-185 10 -186 3 -191 4 -174 15 12 8 11 11 -3 20 -10 5 -18 17 -18 26 0 13 3
14 12 5 17 -17 31 -15 25 2 -6 14 19 27 35 19 4 -2 34 -7 65 -10z m-147 -58
c0 -8 -4 -15 -9 -15 -5 0 -11 7 -15 15 -3 9 0 15 9 15 8 0 15 -7 15 -15z
m-1207 -2 c-7 -2 -19 -2 -25 0 -7 3 -2 5 12 5 14 0 19 -2 13 -5z m-38 -43 c3
-5 2 -10 -4 -10 -5 0 -13 5 -16 10 -3 6 -2 10 4 10 5 0 13 -4 16 -10z m120
-20 c7 -12 -22 -12 -50 0 -17 7 -15 9 12 9 17 1 35 -3 38 -9z m115 -22 c0 -6
-7 -7 -16 -4 -9 3 -31 6 -50 6 -19 0 -34 3 -34 8 0 4 22 5 50 4 27 -2 50 -8
50 -14z m1572 12 c75 0 107 -3 103 -11 -4 -6 -14 -8 -22 -5 -11 5 -13 2 -9
-10 4 -9 2 -22 -4 -29 -8 -9 -8 -15 0 -20 5 -3 10 1 10 10 0 19 26 14 74 -16
17 -11 34 -19 39 -19 15 0 6 35 -15 57 -12 13 -18 26 -15 30 10 9 69 -56 62
-67 -3 -6 -8 -58 -10 -117 -4 -130 -18 -197 -50 -239 -36 -47 -159 -91 -304
-109 -222 -27 -277 -30 -435 -23 -189 8 -183 4 -255 152 -48 98 -68 160 -77
240 -3 22 -7 44 -10 48 -12 19 42 51 111 66 152 35 554 75 654 66 24 -2 93 -4
153 -4z m-1453 -16 c10 -9 -35 -3 -49 6 -11 8 -7 9 15 4 17 -4 32 -8 34 -10z
m1591 6 c0 -5 -5 -10 -11 -10 -5 0 -7 5 -4 10 3 6 8 10 11 10 2 0 4 -4 4 -10z
m-1920 -11 c30 -5 109 -14 174 -20 121 -11 268 -47 292 -71 38 -39 -89 -386
-157 -427 -85 -52 -459 -74 -654 -38 -49 9 -106 17 -126 17 -20 0 -52 6 -70
14 -19 7 -39 12 -45 9 -23 -8 -81 73 -102 143 -23 77 -56 290 -47 304 12 20
73 41 159 55 50 8 102 16 116 19 47 7 405 4 460 -5z m596 -28 c-5 -8 -56 -3
-56 5 0 2 14 4 31 4 16 0 28 -4 25 -9z m74 -21 c0 -5 -2 -10 -4 -10 -3 0 -8 5
-11 10 -3 6 -1 10 4 10 6 0 11 -4 11 -10z"></path>
<path d="M3090 6900 c0 -5 5 -10 10 -10 6 0 10 5 10 10 0 6 -4 10 -10 10 -5 0
-10 -4 -10 -10z"></path>
<path d="M2045 6710 c-3 -5 -2 -10 4 -10 5 0 13 5 16 10 3 6 2 10 -4 10 -5 0
-13 -4 -16 -10z"></path>
<path d="M1827 6546 c-4 -10 -1 -13 9 -9 15 6 19 23 5 23 -5 0 -11 -7 -14 -14z"></path>
<path d="M1846 6508 c-16 -22 -15 -35 2 -24 9 5 24 46 17 46 -2 0 -11 -10 -19
-22z"></path>
<path d="M1795 6510 c3 -5 11 -10 16 -10 6 0 7 5 4 10 -3 6 -11 10 -16 10 -6
0 -7 -4 -4 -10z"></path>
<path d="M2230 6350 c0 -5 5 -10 10 -10 6 0 10 5 10 10 0 6 -4 10 -10 10 -5 0
-10 -4 -10 -10z"></path>
<path d="M2320 6210 c0 -5 5 -10 10 -10 6 0 10 5 10 10 0 6 -4 10 -10 10 -5 0
-10 -4 -10 -10z"></path>
<path d="M4347 4410 c-15 -5 -42 -7 -59 -5 -30 4 -30 4 -25 -31 6 -35 5 -36
-44 -56 -38 -16 -47 -24 -38 -34 6 -7 7 -19 3 -26 -6 -11 -5 -11 8 0 10 8 24
10 39 5 32 -11 108 -8 139 4 25 11 40 32 60 87 8 21 14 26 28 21 9 -4 36 -9
59 -10 23 -1 49 -8 58 -15 30 -25 14 7 -17 35 -29 26 -41 30 -108 32 -41 1
-88 -2 -103 -7z m43 -101 c0 -5 -7 -9 -15 -9 -8 0 -15 7 -15 15 0 9 6 12 15 9
8 -4 15 -10 15 -15z m-45 -19 c3 -5 -1 -10 -9 -10 -9 0 -16 5 -16 10 0 6 4 10
9 10 6 0 13 -4 16 -10z"></path>
<path d="M4065 4370 c-4 -7 3 -8 22 -4 38 9 42 14 10 14 -14 0 -29 -5 -32 -10z"></path>
<path d="M4831 4334 c0 -11 3 -14 6 -6 3 7 2 16 -1 19 -3 4 -6 -2 -5 -13z"></path>
<path d="M4843 4230 c0 -25 2 -35 4 -22 2 12 2 32 0 45 -2 12 -4 2 -4 -23z"></path>
<path d="M2547 4393 c-14 -4 -16 -8 -6 -19 6 -7 16 -11 21 -8 6 4 5 -3 -2 -16
-11 -20 -10 -21 12 -9 13 6 27 18 31 25 4 8 15 14 23 14 8 0 12 5 9 10 -6 10
-54 12 -88 3z"></path>
<path d="M2668 4368 c-32 -18 -58 -37 -58 -42 0 -10 61 0 70 12 6 9 57 42 65
42 3 0 5 -7 5 -15 0 -8 -5 -15 -11 -15 -6 0 -25 -11 -43 -25 -18 -14 -38 -25
-44 -25 -7 0 -12 -7 -12 -15 0 -8 -7 -15 -15 -15 -17 0 -20 -16 -6 -25 6 -3
14 2 19 11 8 15 14 16 38 6 66 -26 212 -53 274 -51 36 2 75 -1 87 -5 17 -5 25
-2 35 13 15 24 33 28 24 6 -3 -8 -1 -15 4 -15 6 0 10 9 10 20 0 12 7 20 16 20
11 0 15 -6 11 -20 -3 -12 -1 -18 5 -14 6 4 8 1 6 -7 -3 -8 -13 -13 -22 -13 -9
1 -16 -2 -16 -7 0 -5 -6 -9 -13 -9 -7 0 -18 -9 -25 -21 -7 -11 -19 -18 -26
-16 -17 7 -43 -9 -33 -20 5 -4 12 -1 17 7 6 8 10 10 10 4 0 -6 -6 -17 -14 -23
-16 -14 -41 11 -33 33 4 10 0 12 -14 9 -10 -3 -19 0 -19 6 0 6 7 11 17 11 9 0
14 3 10 6 -8 9 -167 11 -167 2 0 -4 10 -8 23 -10 14 -2 21 -9 19 -19 -3 -21
42 -23 59 -3 6 8 16 14 21 14 6 0 4 -8 -3 -17 -12 -15 -12 -16 5 -10 18 7 46
-7 46 -23 0 -5 -16 -18 -35 -30 -27 -17 -45 -20 -80 -16 -38 4 -44 2 -35 -9
12 -14 76 -13 137 4 20 6 40 8 44 5 4 -2 10 0 13 5 5 8 63 24 92 26 6 0 18 6
27 14 9 7 20 10 26 7 5 -3 11 -1 13 6 3 8 12 4 26 -10 28 -28 32 -27 61 8 20
24 27 27 40 17 10 -7 8 -3 -3 10 -15 19 -17 25 -6 38 22 26 43 -1 35 -44 -4
-20 -8 -41 -9 -48 -1 -7 -5 -16 -9 -19 -4 -4 -7 -17 -6 -28 0 -19 1 -19 11 4
26 58 40 100 63 178 27 96 31 91 -80 115 -115 26 -301 48 -450 53 l-140 5 -57
-33z m424 -26 c-17 -5 -15 -22 4 -22 11 0 14 -6 8 -22 -3 -13 -7 -23 -8 -23 0
0 -20 -10 -43 -23 -47 -25 -55 -16 -20 24 12 14 22 30 22 34 0 18 29 49 39 43
6 -4 6 -8 -2 -11z m-152 -17 c10 -12 10 -15 -4 -15 -9 0 -16 7 -16 15 0 8 2
15 4 15 2 0 9 -7 16 -15z m347 -8 c4 -6 1 -7 -7 -2 -7 4 -16 2 -21 -6 -7 -12
-11 -11 -25 3 -16 16 -15 17 15 16 17 -1 34 -6 38 -11z m-152 -17 c3 -5 1 -10
-4 -10 -6 0 -11 5 -11 10 0 6 2 10 4 10 3 0 8 -4 11 -10z m-389 -25 c10 -8 14
-15 9 -15 -6 0 -16 5 -23 12 -9 9 -12 9 -12 0 0 -6 -7 -9 -16 -5 -13 5 -13 7
-2 14 18 12 21 11 44 -6z m549 -5 c3 -5 1 -10 -4 -10 -6 0 -11 5 -11 10 0 6 2
10 4 10 3 0 8 -4 11 -10z m-120 -29 c3 -5 1 -12 -4 -15 -5 -3 -11 1 -15 9 -6
16 9 21 19 6z m85 -22 c0 -23 -27 -25 -32 -2 -3 15 -4 15 -20 -1 -20 -19 -23
-14 -8 13 13 25 60 16 60 -10z m25 21 c3 -5 1 -10 -4 -10 -6 0 -11 5 -11 10 0
6 2 10 4 10 3 0 8 -4 11 -10z m-225 -10 c0 -5 -4 -10 -10 -10 -5 0 -10 5 -10
10 0 6 5 10 10 10 6 0 10 -4 10 -10z m310 -24 c0 -11 -19 -15 -25 -6 -3 5 1
10 9 10 9 0 16 -2 16 -4z m-85 -46 c3 -5 1 -10 -4 -10 -6 0 -11 5 -11 10 0 6
2 10 4 10 3 0 8 -4 11 -10z m-175 -4 c0 -2 -7 -9 -15 -16 -12 -10 -15 -10 -15
4 0 9 7 16 15 16 8 0 15 -2 15 -4z m150 -31 c0 -8 -7 -15 -15 -15 -8 0 -15 7
-15 15 0 8 7 15 15 15 8 0 15 -7 15 -15z"></path>
<path d="M2290 4343 c0 -6 9 -21 21 -34 l20 -24 -17 30 c-24 39 -24 40 -24 28z"></path>
<path d="M2330 4277 c0 -5 16 -33 35 -63 19 -30 35 -58 35 -63 0 -5 3 -11 8
-13 11 -5 65 -91 65 -105 0 -7 6 -14 14 -17 7 -3 13 -12 13 -19 0 -16 55 -77
69 -77 6 0 -27 55 -73 123 -45 67 -98 145 -116 172 -38 58 -50 72 -50 62z"></path>
<path d="M2592 4236 c7 -8 15 -12 17 -11 5 6 -10 25 -20 25 -5 0 -4 -6 3 -14z"></path>
<path d="M2594 4181 c8 -13 164 -133 214 -165 29 -18 40 -21 49 -11 9 10 1 18
-35 36 -26 13 -89 53 -140 87 -52 35 -91 59 -88 53z"></path>
<path d="M3010 4170 c0 -5 5 -10 10 -10 6 0 10 5 10 10 0 6 -4 10 -10 10 -5 0
-10 -4 -10 -10z"></path>
<path d="M2811 4086 c-7 -8 -8 -17 -3 -20 6 -3 13 1 16 10 9 23 2 28 -13 10z"></path>
<path d="M2505 6980 c3 -5 11 -10 16 -10 6 0 7 5 4 10 -3 6 -11 10 -16 10 -6
0 -7 -4 -4 -10z"></path>
<path d="M4597 6973 c-14 -13 -6 -33 13 -33 22 0 23 1 14 24 -7 17 -16 20 -27
9z"></path>
<path d="M4660 6966 c0 -9 5 -16 10 -16 6 0 10 4 10 9 0 6 -4 13 -10 16 -5 3
-10 -1 -10 -9z"></path>
<path d="M2254 6925 c-15 -20 -24 -39 -20 -42 4 -4 10 -2 14 4 5 8 13 9 22 3
24 -15 37 -11 16 5 -28 21 -12 30 18 10 30 -20 33 -30 10 -39 -8 -3 -12 -11
-8 -17 5 -8 11 -6 21 7 11 15 15 16 22 5 5 -7 14 -10 20 -7 15 10 14 28 -2 24
-19 -4 -76 52 -70 69 10 26 -16 12 -43 -22z"></path>
<path d="M4225 6909 c-10 -15 3 -25 16 -12 7 7 7 13 1 17 -6 3 -14 1 -17 -5z"></path>
<path d="M2348 6824 c-4 -5 0 -18 8 -29 15 -20 17 -12 5 19 -4 11 -10 15 -13
10z"></path>
<path d="M2120 6549 c0 -5 5 -7 10 -4 6 3 10 8 10 11 0 2 -4 4 -10 4 -5 0 -10
-5 -10 -11z"></path>
<path d="M2075 6500 c3 -5 11 -10 16 -10 6 0 7 5 4 10 -3 6 -11 10 -16 10 -6
0 -7 -4 -4 -10z"></path>
<path d="M2125 6437 c-4 -10 -5 -21 -1 -24 10 -10 18 4 13 24 -4 17 -4 17 -12
0z"></path>
<path d="M2111 6382 c-6 -12 -19 -22 -27 -22 -9 0 -14 -5 -12 -12 6 -18 28
-22 28 -4 0 8 7 19 16 24 9 5 15 15 12 23 -3 10 -8 7 -17 -9z"></path>
<path d="M1998 6383 c7 -3 16 -2 19 1 4 3 -2 6 -13 5 -11 0 -14 -3 -6 -6z"></path>
<path d="M1976 6345 c4 -8 10 -12 15 -9 11 6 2 24 -11 24 -5 0 -7 -7 -4 -15z"></path>
<path d="M2035 6350 c3 -5 8 -10 11 -10 2 0 4 5 4 10 0 6 -5 10 -11 10 -5 0
-7 -4 -4 -10z"></path>
<path d="M2067 6306 c-4 -10 -1 -13 9 -9 7 3 14 9 14 14 0 14 -17 10 -23 -5z"></path>
<path d="M2035 6270 c3 -5 11 -10 16 -10 6 0 7 5 4 10 -3 6 -11 10 -16 10 -6
0 -7 -4 -4 -10z"></path>
<path d="M1814 5875 c8 -8 18 -15 22 -15 3 0 1 7 -6 15 -7 8 -17 15 -22 15 -5
0 -3 -7 6 -15z"></path>
<path d="M3795 5700 c-3 -5 -1 -10 4 -10 6 0 11 5 11 10 0 6 -2 10 -4 10 -3 0
-8 -4 -11 -10z"></path>
<path d="M3635 5610 c3 -5 8 -10 11 -10 2 0 4 5 4 10 0 6 -5 10 -11 10 -5 0
-7 -4 -4 -10z"></path>
<path d="M2465 5070 c-3 -5 -1 -10 4 -10 6 0 11 5 11 10 0 6 -2 10 -4 10 -3 0
-8 -4 -11 -10z"></path>
<path d="M2801 4966 c2 -2 18 -6 34 -10 22 -5 26 -4 15 4 -14 9 -59 15 -49 6z"></path>
<path d="M1920 4680 c0 -5 5 -10 10 -10 6 0 10 5 10 10 0 6 -4 10 -10 10 -5 0
-10 -4 -10 -10z"></path>
<path d="M1780 4593 c-1 -50 105 -403 121 -403 8 0 -7 56 -30 113 -6 16 -11
41 -11 57 0 16 -4 31 -9 34 -11 7 -36 135 -27 143 3 3 13 -11 21 -31 18 -43
55 -87 55 -67 0 22 -61 122 -79 129 -9 3 -21 13 -28 21 -7 10 -12 11 -13 4z"></path>
<path d="M1881 4161 c-4 -49 76 -246 108 -265 8 -5 52 -131 120 -341 18 -55
37 -109 42 -120 83 -191 224 -577 250 -684 17 -72 35 -131 41 -131 6 0 8 6 5
13 -2 6 -14 57 -26 112 -27 121 -62 234 -96 309 -14 30 -39 92 -56 138 -17 46
-40 106 -51 133 -31 77 -158 497 -158 522 0 38 -40 198 -64 258 -28 67 -42 59
-22 -11 8 -27 20 -76 26 -109 6 -33 14 -68 16 -77 3 -10 1 -18 -4 -18 -17 0
-74 111 -102 200 -16 47 -28 79 -29 71z"></path>
<path d="M3295 3707 c-54 -110 -75 -166 -78 -204 -5 -47 10 -41 24 10 6 23 30
80 54 127 43 86 64 150 48 149 -4 0 -26 -37 -48 -82z"></path>
<path d="M1980 3684 c0 -14 53 -96 73 -113 9 -7 17 -9 17 -3 0 5 -8 16 -17 23
-9 8 -29 34 -45 58 -15 25 -28 40 -28 35z"></path>
<path d="M4841 3355 c-1 -11 -7 -31 -14 -45 -7 -14 -14 -37 -15 -51 -1 -14 -8
-39 -17 -55 -8 -16 -15 -36 -15 -45 0 -9 -3 -19 -7 -23 -5 -4 -8 -11 -8 -14 0
-16 -40 -102 -47 -102 -4 0 -8 -7 -8 -16 0 -14 -37 -91 -50 -104 -10 -10 -30
-45 -40 -70 -6 -14 -22 -46 -36 -72 -14 -27 -20 -48 -15 -48 6 0 11 5 11 11 0
6 10 25 23 42 36 51 44 67 97 172 75 151 156 387 147 424 -4 12 -5 11 -6 -4z"></path>
<path d="M3404 2924 c4 -11 1 -14 -13 -9 -26 8 -71 -14 -64 -31 6 -16 -13 -19
-22 -4 -3 6 -11 10 -16 10 -6 0 -8 -4 -5 -9 3 -5 -4 -9 -17 -9 -33 0 -71 -7
-85 -16 -7 -4 -20 -5 -28 -2 -21 8 -94 -4 -94 -15 0 -5 7 -9 15 -9 8 0 15 -3
15 -7 0 -8 61 -13 165 -13 33 0 83 -6 110 -14 50 -14 122 -26 180 -31 26 -2
30 1 31 22 1 13 9 32 18 42 20 22 20 31 2 31 -7 0 -16 9 -19 20 -3 13 -17 22
-36 26 -25 5 -29 9 -20 20 9 11 7 14 -11 14 -15 0 -20 -5 -17 -14 9 -23 -52
-27 -66 -4 -14 22 -31 24 -23 2z m166 -54 c0 -5 -8 -6 -17 -4 -10 2 -25 0 -33
-6 -13 -9 -13 -11 0 -21 12 -9 12 -10 1 -7 -24 7 -24 25 0 47 17 16 26 18 36
10 7 -6 13 -15 13 -19z"></path>
<path d="M3430 2930 c0 -5 4 -10 9 -10 6 0 13 5 16 10 3 6 -1 10 -9 10 -9 0
-16 -4 -16 -10z"></path>
<path d="M3843 2929 c1 -6 -13 -17 -31 -23 -18 -6 -30 -15 -25 -20 4 -5 -2 -3
-14 3 -20 10 -22 9 -16 -6 6 -16 5 -17 -12 -3 -14 11 -19 12 -22 3 -3 -7 -11
-13 -19 -13 -21 0 -17 -13 16 -47 27 -27 28 -32 14 -44 -9 -8 -42 -13 -79 -14
-35 0 -61 -3 -58 -7 6 -11 65 -10 138 1 33 6 85 12 115 15 30 3 72 12 92 20
23 10 39 12 43 6 3 -6 1 -10 -4 -10 -6 0 -11 -7 -11 -14 0 -11 14 -8 59 15 33
16 64 29 69 29 5 0 23 7 41 16 18 9 43 13 59 10 21 -4 31 0 45 19 16 23 17 27
3 41 -9 8 -16 18 -16 22 0 4 -12 8 -28 8 -15 1 -21 -1 -14 -3 20 -7 14 -39
-10 -55 -53 -34 -105 -30 -206 19 -35 16 -62 23 -80 19 -15 -3 -21 -3 -14 0 6
3 10 10 6 15 -8 13 -44 11 -41 -2z m35 -48 c3 -8 -1 -12 -9 -9 -7 2 -15 10
-17 17 -3 8 1 12 9 9 7 -2 15 -10 17 -17z m42 -2 c0 -5 -4 -9 -10 -9 -5 0 -10
7 -10 16 0 8 5 12 10 9 6 -3 10 -10 10 -16z m-15 -39 c3 -5 1 -10 -4 -10 -6 0
-11 5 -11 10 0 6 2 10 4 10 3 0 8 -4 11 -10z"></path>
<path d="M3640 2850 c0 -5 5 -10 10 -10 6 0 10 5 10 10 0 6 -4 10 -10 10 -5 0
-10 -4 -10 -10z"></path>
<path d="M4576 2685 c-9 -13 -16 -29 -16 -34 0 -6 24 -43 54 -82 30 -40 52
-79 49 -86 -3 -7 -1 -19 5 -26 5 -6 22 -55 36 -107 33 -117 33 -117 41 -177 9
-62 -8 -47 -24 22 -36 153 -100 306 -160 382 -23 29 -27 31 -41 18 -13 -14 -7
-45 53 -283 69 -276 83 -347 67 -337 -6 4 -10 2 -10 -4 0 -5 5 -13 10 -16 8
-5 8 -11 1 -19 -6 -7 -7 -16 -2 -22 15 -15 18 -59 3 -56 -10 2 -10 -2 0 -17
19 -31 -7 -122 -79 -267 -55 -112 -75 -141 -136 -203 -115 -116 -204 -167
-396 -231 -205 -69 -265 -81 -393 -81 -152 -1 -205 6 -373 48 -217 54 -371
137 -630 342 -254 200 -401 395 -423 561 -14 97 6 145 165 398 53 84 74 142
53 142 -23 0 -190 -156 -190 -178 0 -7 -29 -42 -64 -78 -67 -68 -138 -192
-143 -249 l-3 -30 12 25 c7 14 21 45 32 70 25 55 115 190 127 190 11 0 12 -14
2 -24 -4 -3 -8 -14 -9 -24 -1 -9 -9 -35 -17 -57 -8 -22 -17 -65 -20 -95 -4
-46 -1 -63 23 -111 16 -31 27 -59 24 -61 -2 -3 8 -29 23 -58 19 -38 24 -55 15
-58 -21 -7 -13 -22 35 -67 26 -25 41 -45 33 -45 -11 0 -15 -12 -16 -41 0 -35
6 -48 37 -80 20 -21 40 -35 44 -31 4 4 6 -3 3 -15 -4 -16 -2 -20 10 -16 11 5
14 1 10 -14 -4 -16 -2 -19 13 -16 11 3 21 -1 25 -10 3 -9 12 -13 19 -10 9 3
17 -5 21 -21 3 -14 10 -26 16 -26 5 0 6 -4 3 -10 -3 -5 1 -10 10 -10 11 0 15
-5 11 -16 -3 -8 -2 -13 3 -10 4 3 18 -4 29 -15 12 -11 22 -15 22 -9 0 5 5 10
11 10 6 0 9 -6 6 -13 -3 -7 2 -22 10 -32 14 -18 15 -19 9 -1 -5 14 -2 17 10
12 8 -3 18 -6 21 -6 3 0 1 -6 -5 -12 -7 -9 -6 -17 4 -26 9 -8 14 -9 14 -2 0 6
5 8 11 5 6 -4 8 -14 5 -22 -3 -8 -2 -12 3 -8 17 10 43 -7 38 -25 -3 -13 0 -16
14 -13 13 4 21 -2 27 -18 6 -15 11 -18 16 -11 4 7 12 12 18 12 6 0 4 -8 -5
-18 -22 -24 -22 -39 -1 -17 13 12 19 13 31 4 7 -7 12 -17 10 -23 -3 -6 2 -17
10 -25 13 -12 14 -11 8 10 -7 22 -7 23 11 9 10 -8 25 -20 32 -27 28 -27 184
-105 266 -133 48 -17 106 -39 129 -49 23 -11 49 -21 57 -24 39 -13 -26 -6 -73
9 -125 37 -430 165 -487 204 -8 6 -31 18 -50 26 -19 9 -37 20 -40 24 -3 4 -16
12 -30 19 -18 9 -14 2 14 -22 51 -45 263 -152 464 -233 139 -56 397 -113 515
-114 26 0 47 -4 47 -9 0 -16 -202 -2 -359 25 -79 13 -274 68 -296 84 -5 3 -32
15 -60 25 -27 10 -62 26 -77 36 -14 11 -29 19 -33 19 -3 0 -30 15 -59 34 -30
19 -69 42 -87 51 l-34 17 25 -24 c48 -46 154 -111 267 -164 121 -58 327 -124
384 -124 19 0 50 -4 69 -10 19 -5 87 -11 150 -13 63 -3 122 -8 131 -12 10 -3
20 -2 23 4 8 13 35 4 64 -22 12 -11 22 -15 22 -9 0 7 5 12 11 12 6 0 8 -7 5
-16 -8 -21 4 -40 14 -24 6 10 16 7 39 -9 17 -12 31 -18 31 -13 0 6 -7 12 -15
16 -8 3 -15 10 -15 15 0 5 12 5 29 -2 22 -8 31 -19 36 -44 6 -34 45 -67 53
-44 4 12 72 16 72 3 0 -4 -6 -14 -12 -22 -7 -8 -3 -6 10 5 20 16 25 17 33 5 8
-13 10 -13 19 0 5 8 10 10 10 4 0 -5 -6 -16 -12 -23 -9 -10 -9 -12 -1 -7 14 8
22 -4 25 -37 1 -14 6 -23 11 -20 5 3 13 -1 18 -8 7 -11 11 -11 17 -1 10 14 37
7 64 -15 9 -8 21 -12 27 -8 7 3 8 0 5 -9 -3 -9 -1 -16 5 -16 6 0 11 -5 11 -11
0 -6 -9 -9 -19 -6 -14 3 -18 1 -14 -10 4 -10 14 -12 33 -8 18 4 31 1 36 -6 5
-10 9 -8 13 4 5 12 10 14 21 6 12 -8 12 -12 2 -16 -16 -6 3 -33 23 -33 7 0 18
-7 25 -16 8 -8 21 -19 31 -25 15 -7 17 -6 13 6 -7 18 7 20 24 3 9 -9 12 -8 12
5 0 21 24 22 44 1 15 -14 17 -14 32 0 22 23 26 21 80 -29 26 -25 55 -45 63
-44 14 0 14 1 1 6 -20 8 -104 92 -98 98 3 3 11 -1 18 -10 18 -22 32 -18 26 8
-3 12 2 5 12 -16 9 -21 20 -35 24 -32 4 4 12 4 18 0 9 -6 9 -10 -1 -17 -11 -8
-10 -9 2 -5 9 3 22 0 28 -6 18 -18 13 4 -6 25 -29 32 -8 29 27 -3 25 -24 34
-28 41 -18 6 11 12 9 28 -5 20 -18 21 -18 21 -1 0 10 3 16 6 13 3 -3 32 20 64
52 56 55 75 65 63 34 -3 -8 -1 -14 5 -14 6 0 12 6 15 13 2 6 8 9 12 5 5 -5 1
-16 -9 -27 -16 -17 -16 -19 1 -26 30 -13 63 -14 63 -3 0 6 6 6 15 -2 9 -7 18
-10 22 -7 3 4 -5 15 -18 26 -23 19 -23 20 -3 15 12 -3 25 -1 28 5 4 7 -1 11
-13 11 -12 0 -21 5 -21 10 0 9 19 9 59 1 2 -1 -4 -10 -15 -22 -18 -20 -18 -21
6 -39 17 -13 30 -16 41 -9 12 6 27 1 52 -19 38 -28 49 -49 21 -38 -10 4 -14 1
-12 -6 3 -7 16 -13 30 -14 14 -1 30 -4 37 -8 16 -10 14 -36 -4 -42 -18 -7 -20
-34 -2 -34 6 0 20 12 31 26 18 26 18 26 -15 60 -28 28 -30 34 -14 34 15 0 16
3 7 12 -7 7 -12 16 -12 22 0 5 9 -1 19 -13 11 -12 21 -18 24 -14 2 4 5 60 6
123 2 63 5 118 7 122 3 5 350 6 772 3 422 -3 788 -3 815 1 l47 6 0 713 c0 621
-2 716 -15 729 -8 8 -15 20 -15 27 0 9 4 8 15 -1 13 -11 15 -8 15 16 0 30 -16
64 -61 131 -35 51 -36 51 -174 121 -145 73 -354 146 -461 162 -44 6 -113 17
-154 25 -100 19 -594 93 -795 119 -66 8 -178 23 -250 33 -71 9 -146 17 -165
16 -19 -1 -68 5 -110 13 -109 21 -126 16 -39 -11 42 -12 107 -37 145 -53 38
-17 83 -34 99 -38 17 -4 35 -10 40 -15 6 -4 32 -13 58 -19 26 -7 47 -16 47
-21 0 -5 9 -9 19 -9 11 0 22 -4 26 -10 3 -5 12 -7 20 -3 11 4 13 1 9 -11 -4
-11 -1 -16 10 -16 9 0 16 -5 16 -11 0 -10 -25 -6 -65 11 -52 22 -175 57 -175
50 0 -11 -40 1 -103 30 -70 31 -79 19 -11 -14 84 -41 310 -182 369 -231 28
-22 64 -49 80 -59 17 -11 55 -41 86 -68 31 -26 60 -48 64 -48 4 0 30 -22 58
-49 29 -27 64 -60 80 -74 21 -19 24 -26 13 -30 -18 -7 -56 3 -56 14 0 17 -96
109 -113 109 -10 0 -20 7 -23 15 -4 8 -10 15 -16 15 -5 0 -41 24 -81 53 -73
54 -271 185 -407 270 -94 59 -172 118 -178 135 -3 10 3 10 27 -2 17 -9 31 -12
31 -7 0 9 -34 25 -56 26 -6 0 -19 9 -30 19 -19 19 -153 86 -172 86 -5 0 -17
-11 -26 -25z m447 -49 c32 -6 58 -16 57 -21 0 -18 -55 -8 -125 24 -28 13 -2
12 68 -3z m325 -47 c49 -10 63 -21 43 -34 -5 -3 -12 -1 -16 5 -4 6 -10 8 -15
5 -5 -3 -17 -1 -27 4 -10 5 -40 16 -68 25 -48 15 -49 16 -10 10 22 -2 64 -9
93 -15z m82 -21 c0 -19 -18 -43 -25 -36 -4 3 -2 16 5 27 12 24 20 27 20 9z
m119 -3 c23 -8 45 -14 49 -13 16 4 72 -14 72 -23 0 -6 -8 -8 -17 -5 -10 3 -51
13 -90 22 -40 10 -73 21 -73 26 0 11 11 10 59 -7z m-852 -19 c15 -12 66 -48
113 -78 121 -78 219 -156 370 -293 135 -122 163 -155 136 -155 -8 0 -19 6 -23
14 -4 7 -35 35 -68 61 -33 27 -70 59 -83 73 -12 13 -44 40 -70 60 -26 19 -54
42 -62 51 -8 8 -51 41 -95 74 -44 32 -84 64 -90 70 -5 7 -35 29 -65 49 -59 39
-121 98 -103 98 6 0 24 -11 40 -24z m463 14 c0 -5 -2 -10 -4 -10 -3 0 -8 5
-11 10 -3 6 -1 10 4 10 6 0 11 -4 11 -10z m197 -15 c9 3 24 -4 34 -16 l19 -22
18 21 c20 23 49 15 39 -11 -6 -17 31 -31 56 -21 10 3 20 -3 27 -15 6 -12 21
-21 33 -21 12 0 29 -5 37 -10 11 -7 5 -8 -20 -5 -88 14 -186 39 -201 51 -8 8
-30 17 -47 20 -18 4 -32 13 -32 20 0 8 -5 14 -11 14 -5 0 -7 5 -4 10 4 6 12 4
22 -5 9 -9 22 -14 30 -10z m-157 5 c0 -5 -4 -10 -10 -10 -5 0 -10 5 -10 10 0
6 5 10 10 10 6 0 10 -4 10 -10z m71 -24 c14 -7 42 -16 61 -20 19 -3 43 -13 54
-21 17 -13 13 -14 -36 -8 -30 3 -67 14 -82 24 -14 11 -33 19 -42 19 -9 0 -16
5 -16 10 0 14 30 12 61 -4z m439 0 c0 -3 -4 -8 -10 -11 -5 -3 -10 -1 -10 4 0
6 5 11 10 11 6 0 10 -2 10 -4z m350 -43 c97 -23 57 -29 -52 -9 -55 10 -106 13
-153 9 -126 -12 -288 -9 -292 4 -3 9 9 11 49 6 29 -3 58 -5 63 -4 174 23 268
22 385 -6z m-970 1 c0 -2 -7 -4 -15 -4 -8 0 -15 4 -15 10 0 5 7 7 15 4 8 -4
15 -8 15 -10z m1080 -24 c0 -5 -4 -10 -9 -10 -6 0 -13 5 -16 10 -3 6 1 10 9
10 9 0 16 -4 16 -10z m350 -91 c0 -6 -4 -7 -10 -4 -5 3 -10 11 -10 16 0 6 5 7
10 4 6 -3 10 -11 10 -16z m120 -40 c0 -6 -4 -7 -10 -4 -5 3 -10 11 -10 16 0 6
5 7 10 4 6 -3 10 -11 10 -16z m-120 -21 c0 -16 -3 -19 -11 -11 -6 6 -8 16 -5
22 11 17 16 13 16 -11z m195 -8 c3 -5 2 -10 -4 -10 -5 0 -13 5 -16 10 -3 6 -2
10 4 10 5 0 13 -4 16 -10z m150 -200 c3 -5 1 -10 -4 -10 -6 0 -11 5 -11 10 0
6 2 10 4 10 3 0 8 -4 11 -10z m-2105 -55 c0 -5 -5 -3 -10 5 -5 8 -10 20 -10
25 0 6 5 3 10 -5 5 -8 10 -19 10 -25z m975 -114 c-3 -5 -1 -12 4 -15 5 -4 12
-2 16 4 7 12 21 2 78 -54 25 -25 35 -42 27 -44 -14 -5 -32 17 -24 30 3 4 -2 8
-10 8 -9 0 -21 9 -28 19 -6 10 -18 17 -25 14 -7 -3 -13 0 -13 7 0 6 -5 8 -11
4 -6 -3 -15 -1 -19 7 -8 12 -5 29 6 29 3 0 3 -4 -1 -9z m-575 -107 c0 -8 6
-14 13 -14 13 0 42 -47 39 -62 -1 -5 5 -8 13 -8 8 0 19 -9 25 -19 5 -11 16
-25 23 -33 21 -22 48 -68 40 -68 -5 0 -19 14 -33 32 -14 17 -42 49 -62 71 -21
21 -38 43 -38 48 0 5 -4 9 -8 9 -7 0 -101 122 -110 143 -2 4 19 -13 47 -39 28
-26 51 -53 51 -60z m735 -34 c3 -5 1 -10 -4 -10 -6 0 -11 5 -11 10 0 6 2 10 4
10 3 0 8 -4 11 -10z m-1198 -413 c-42 -58 -77 -97 -77 -84 0 3 18 27 40 53 22
27 40 52 40 57 0 16 34 59 38 48 2 -6 -17 -39 -41 -74z m-2058 26 c2 -2 2 -6
-1 -9 -6 -5 -58 42 -58 53 0 4 12 -4 28 -18 15 -13 29 -25 31 -26z m202 -136
c47 -32 88 -57 92 -57 3 0 27 -13 52 -29 53 -34 114 -56 290 -107 72 -20 132
-39 134 -41 25 -20 -80 3 -211 48 -32 10 -61 18 -65 17 -16 -4 -87 25 -153 63
-37 22 -70 39 -75 39 -4 0 -24 13 -44 29 -20 15 -49 35 -66 44 -37 19 -115 87
-115 100 0 5 17 -4 38 -21 20 -16 76 -54 123 -85z m1713 -88 c-37 -39 -43 -29
-8 17 16 20 30 31 32 24 2 -6 -8 -25 -24 -41z m-1144 -289 c0 -5 -2 -10 -4
-10 -3 0 -8 5 -11 10 -3 6 -1 10 4 10 6 0 11 -4 11 -10z m586 -237 c-7 -7 -26
7 -26 19 0 6 6 6 15 -2 9 -7 13 -15 11 -17z m418 -165 c-8 -28 -12 -33 -20
-25 -9 8 6 47 17 47 6 0 7 -10 3 -22z m276 -32 c0 -3 -4 -8 -10 -11 -5 -3 -10
-1 -10 4 0 6 5 11 10 11 6 0 10 -2 10 -4z m-150 -36 c0 -5 -4 -10 -10 -10 -5
0 -10 5 -10 10 0 6 5 10 10 10 6 0 10 -4 10 -10z m350 -10 c0 -5 -4 -10 -10
-10 -5 0 -10 5 -10 10 0 6 5 10 10 10 6 0 10 -4 10 -10z m-45 -21 c0 -8 -6
-13 -12 -11 -8 1 -13 -8 -13 -23 0 -33 -7 -32 -41 8 -17 19 -24 34 -17 36 7 2
14 -1 15 -6 5 -13 43 -5 43 9 0 5 6 8 13 6 6 -3 12 -11 12 -19z m-265 -9 c0
-5 -4 -10 -10 -10 -5 0 -10 5 -10 10 0 6 5 10 10 10 6 0 10 -4 10 -10z m303
-21 c3 -13 1 -19 -6 -16 -15 5 -22 37 -9 37 5 0 12 -9 15 -21z"></path>
<path d="M2440 2601 c0 -5 5 -13 10 -16 6 -3 10 -2 10 4 0 5 -4 13 -10 16 -5
3 -10 2 -10 -4z"></path>
<path d="M2543 2523 c12 -21 64 -80 115 -133 86 -87 99 -86 20 2 -18 20 -58
65 -88 101 -62 74 -80 85 -47 30z"></path>
<path d="M2670 2553 c0 -7 11 -24 24 -40 12 -15 21 -33 19 -40 -2 -6 8 -30 22
-52 18 -26 25 -46 20 -60 -3 -12 -2 -21 3 -21 6 0 12 -10 16 -23 3 -13 17 -36
31 -52 l26 -28 -25 7 c-29 7 -36 -9 -8 -19 20 -7 64 -89 57 -107 -7 -18 50
-82 65 -73 6 3 26 -6 44 -22 18 -15 41 -33 52 -40 16 -10 17 -13 4 -22 -18
-13 -11 -20 37 -36 30 -10 38 -19 39 -38 1 -30 10 -44 34 -57 15 -8 18 -7 14
3 -8 22 23 40 72 40 24 0 46 3 49 7 4 7 122 5 243 -4 34 -2 62 0 62 5 0 5 7 9
15 9 8 0 15 -5 15 -11 0 -8 4 -8 15 1 8 6 19 9 24 6 5 -4 12 -2 16 4 3 5 11
10 16 10 6 0 7 -4 4 -10 -3 -5 -1 -10 6 -10 7 0 25 -12 40 -26 24 -23 67 -35
123 -35 29 0 166 72 166 87 0 8 6 14 14 14 7 0 19 7 26 15 10 12 16 13 27 4
11 -10 12 -9 7 5 -3 9 -1 16 4 16 6 0 18 8 28 18 10 9 40 34 68 55 27 20 61
57 75 80 14 24 37 54 49 68 29 30 53 74 45 83 -4 3 1 6 11 6 15 0 16 2 3 15
-9 8 -18 20 -20 27 -4 9 -12 6 -25 -9 -11 -13 -25 -23 -31 -23 -6 0 -11 -7
-11 -15 0 -9 -7 -18 -16 -22 -8 -3 -13 -12 -10 -19 6 -17 -10 -19 -20 -3 -3 6
-1 15 6 19 7 4 9 13 6 19 -4 6 -32 -23 -68 -70 -33 -44 -71 -87 -84 -96 -13
-8 -24 -22 -24 -29 0 -8 -7 -14 -15 -14 -9 0 -18 -7 -21 -15 -4 -8 -12 -15
-19 -15 -7 0 -23 -11 -36 -25 -14 -14 -41 -28 -61 -31 -21 -4 -38 -11 -38 -16
0 -6 -8 -8 -18 -6 -11 3 -41 2 -68 -2 -37 -6 -53 -4 -65 6 -14 13 -18 12 -29
-1 -17 -21 -176 -19 -202 3 -9 8 -22 11 -27 7 -6 -3 -11 -1 -11 5 0 6 -5 8
-10 5 -6 -4 -8 -11 -5 -16 10 -15 -12 -10 -25 6 -14 17 -35 9 -23 -9 4 -7 1
-5 -7 4 -9 10 -22 20 -30 24 -8 3 -4 4 9 2 22 -5 23 -3 9 10 -9 9 -31 17 -50
19 -32 3 -35 1 -35 -26 0 -16 4 -29 9 -29 5 0 7 -4 3 -10 -10 -16 -36 1 -33
23 3 22 -1 25 -87 62 -91 41 -188 124 -273 237 -27 37 -52 65 -55 62 -2 -2
-26 21 -53 53 -27 32 -58 65 -69 74 -17 15 -18 19 -5 35 9 11 10 15 3 10 -8
-4 -13 -2 -13 7 0 7 -11 24 -25 37 -14 13 -25 19 -25 13z m155 -252 c5 -17 4
-22 -6 -19 -8 3 -15 18 -17 34 -4 33 11 24 23 -15z m1405 -105 c0 -3 -4 -8
-10 -11 -5 -3 -10 -1 -10 4 0 6 5 11 10 11 6 0 10 -2 10 -4z m-1330 -86 c0 -5
-4 -10 -10 -10 -5 0 -10 5 -10 10 0 6 5 10 10 10 6 0 10 -4 10 -10z m1170
-104 c0 -3 -4 -8 -10 -11 -5 -3 -10 -1 -10 4 0 6 5 11 10 11 6 0 10 -2 10 -4z
m-740 -27 c0 -6 -4 -7 -10 -4 -5 3 -10 11 -10 16 0 6 5 7 10 4 6 -3 10 -11 10
-16z m-235 -39 c3 -5 2 -10 -4 -10 -5 0 -13 5 -16 10 -3 6 -2 10 4 10 5 0 13
-4 16 -10z m85 0 c0 -5 -4 -10 -10 -10 -5 0 -10 5 -10 10 0 6 5 10 10 10 6 0
10 -4 10 -10z"></path>
<path d="M2830 2389 c12 -23 24 -39 27 -36 7 8 -27 77 -38 77 -5 0 0 -18 11
-41z"></path>
<path d="M2152 2339 c-29 -16 -58 -27 -63 -23 -6 3 -20 -3 -32 -14 -27 -24
-48 -34 -267 -132 -97 -43 -202 -92 -235 -109 -33 -17 -63 -31 -67 -31 -4 0
-31 -14 -60 -32 -29 -17 -178 -96 -330 -174 -152 -79 -344 -181 -425 -227 -81
-47 -170 -97 -198 -112 -196 -109 -445 -271 -445 -292 0 -5 47 26 101 68 20
16 58 40 85 54 58 30 78 43 119 71 17 12 53 33 80 48 55 29 77 42 116 68 15 9
39 20 53 24 14 3 30 11 34 18 4 6 27 22 52 35 25 13 52 30 61 37 8 8 23 14 32
14 9 0 17 5 17 10 0 6 6 10 14 10 7 0 19 7 26 15 7 8 20 15 30 15 9 0 28 9 42
19 13 11 36 23 51 26 14 4 28 13 31 21 3 8 14 14 24 14 10 0 33 11 52 25 19
14 41 25 50 25 9 0 20 4 25 9 14 12 456 244 463 242 1 -1 25 10 54 24 28 14
60 25 69 25 10 0 24 6 31 14 8 7 28 17 45 20 18 4 37 13 43 21 6 8 18 11 26 8
8 -3 14 -1 14 4 0 11 50 38 64 34 5 -1 12 2 15 6 21 29 81 37 81 11 0 -6 11
-3 25 6 14 9 30 14 35 11 6 -3 10 0 11 7 0 7 30 37 66 66 73 58 66 66 -15 21z"></path>
<path d="M1976 2215 c-16 -14 -26 -28 -22 -32 4 -4 11 -2 15 5 4 7 15 10 23 7
9 -4 19 -2 23 4 3 7 0 8 -9 5 -19 -7 -21 7 -4 24 21 21 4 13 -26 -13z"></path>
<path d="M1905 2180 c-3 -6 1 -7 9 -4 18 7 21 14 7 14 -6 0 -13 -4 -16 -10z"></path>
<path d="M1870 2145 c-14 -17 -35 -21 -25 -5 13 20 -21 -1 -39 -25 -10 -14
-25 -25 -32 -25 -8 0 -14 -5 -14 -11 0 -6 6 -8 13 -5 6 3 20 9 30 12 9 4 17
10 17 15 0 5 4 9 10 9 18 0 72 38 62 44 -5 3 -15 -1 -22 -9z"></path>
<path d="M4310 2149 c0 -6 -10 -25 -23 -42 -13 -18 -24 -45 -25 -61 -3 -38
-55 -102 -97 -117 -19 -7 -32 -17 -29 -21 3 -5 12 -4 19 2 8 7 18 9 23 6 10
-6 84 68 101 102 7 13 18 42 25 65 8 23 17 50 21 60 4 10 3 17 -4 17 -6 0 -11
-5 -11 -11z"></path>
<path d="M2700 2086 c0 -2 7 -9 15 -16 13 -11 14 -10 9 4 -5 14 -24 23 -24 12z"></path>
<path d="M2815 2080 c-3 -5 -1 -10 4 -10 6 0 11 5 11 10 0 6 -2 10 -4 10 -3 0
-8 -4 -11 -10z"></path>
<path d="M2830 2056 c0 -3 11 -17 25 -32 17 -19 25 -22 25 -12 0 9 -11 23 -25
32 -14 9 -25 14 -25 12z"></path>
<path d="M2901 2006 c-7 -8 -8 -17 -3 -20 6 -3 12 3 15 14 6 24 4 25 -12 6z"></path>
<path d="M4620 2009 c0 -5 5 -7 10 -4 6 3 10 8 10 11 0 2 -4 4 -10 4 -5 0 -10
-5 -10 -11z"></path>
<path d="M1910 2000 c0 -5 7 -7 15 -4 8 4 15 8 15 10 0 2 -7 4 -15 4 -8 0 -15
-4 -15 -10z"></path>
<path d="M2940 1980 c0 -16 4 -30 9 -30 10 0 22 40 15 52 -11 18 -24 6 -24
-22z"></path>
<path d="M2970 1936 c0 -2 8 -10 18 -17 15 -13 16 -12 3 4 -13 16 -21 21 -21
13z"></path>
<path d="M3010 1902 c0 -12 31 -32 48 -32 6 0 13 7 16 15 4 13 2 14 -12 6 -12
-7 -22 -5 -34 6 -11 9 -18 11 -18 5z"></path>
<path d="M3630 1840 c0 -5 5 -10 11 -10 5 0 7 5 4 10 -3 6 -8 10 -11 10 -2 0
-4 -4 -4 -10z"></path>
<path d="M2070 1771 c0 -6 4 -13 10 -16 6 -3 7 1 4 9 -7 18 -14 21 -14 7z"></path>
<path d="M3179 1663 c69 -115 191 -299 191 -290 0 17 -220 366 -232 366 -3 1
15 -34 41 -76z"></path>
<path d="M2235 1689 c8 -14 13 -33 10 -42 -4 -8 -2 -18 4 -22 7 -4 8 0 4 11
-5 13 -2 15 15 9 15 -4 22 -2 22 6 0 7 -3 10 -6 6 -3 -3 -19 9 -36 26 -25 28
-27 28 -13 6z"></path>
<path d="M2130 1660 c0 -5 5 -10 11 -10 5 0 7 5 4 10 -3 6 -8 10 -11 10 -2 0
-4 -4 -4 -10z"></path>
<path d="M2230 1561 c0 -5 7 -15 17 -22 15 -13 15 -12 4 9 -12 23 -21 28 -21
13z"></path>
<path d="M1609 1463 c-13 -16 -12 -17 4 -4 9 7 17 15 17 17 0 8 -8 3 -21 -13z"></path>
<path d="M2386 1402 c-3 -5 1 -15 9 -22 16 -14 20 -3 6 19 -5 8 -11 9 -15 3z"></path>
<path d="M1563 1385 c-9 -25 4 -29 17 -6 7 15 7 21 0 21 -6 0 -13 -7 -17 -15z"></path>
<path d="M2462 1325 c24 -25 47 -45 52 -45 6 0 1 9 -10 20 -57 59 -69 70 -77
70 -4 0 11 -20 35 -45z"></path>
<path d="M1540 1321 c0 -11 -4 -23 -10 -26 -5 -3 -10 -18 -10 -33 0 -19 3 -23
11 -15 12 12 25 93 15 93 -3 0 -6 -9 -6 -19z"></path>
<path d="M2532 1254 c10 -10 20 -15 24 -12 3 4 -5 12 -18 18 -22 12 -22 12 -6
-6z"></path>
<path d="M1554 1233 c-17 -79 -27 -109 -36 -114 -6 -4 -11 -25 -11 -48 0 -23
-4 -41 -9 -41 -5 0 -6 -4 -3 -10 3 -5 -1 -10 -9 -10 -11 0 -14 11 -13 45 1 25
-1 45 -4 45 -6 0 -39 -79 -39 -94 0 -4 -6 -22 -14 -39 -19 -43 -33 -93 -41
-147 -4 -25 -10 -49 -14 -55 -4 -5 -8 -21 -9 -34 -2 -38 -45 -195 -55 -202 -5
-4 -5 -9 1 -13 7 -4 6 -15 -4 -34 -18 -35 -18 -93 0 -118 10 -12 11 -23 5 -31
-7 -7 -6 -13 0 -17 11 -7 8 -21 -15 -71 -13 -31 -22 -200 -10 -212 3 -3 1 -12
-5 -20 -9 -11 1 -13 60 -13 39 0 71 4 71 9 0 5 3 17 7 27 4 12 3 15 -5 10 -14
-9 -14 -3 -2 49 5 21 5 44 1 50 -10 11 -8 96 3 165 l7 45 -21 -24 -20 -24 3
24 c2 12 9 25 15 27 7 2 12 18 12 35 1 18 7 50 15 72 8 22 15 60 15 84 0 41
20 128 41 176 21 49 67 241 60 248 -5 5 0 34 9 65 23 73 60 205 60 215 0 4 -9
7 -20 7 -13 0 -22 -9 -26 -27z m-80 -241 c3 -5 -4 -21 -15 -38 -19 -29 -24
-19 -13 24 6 22 19 29 28 14z m36 -63 c0 -14 -17 -10 -23 5 -4 10 -1 13 9 9 7
-3 14 -9 14 -14z m-15 -29 c3 -5 1 -10 -4 -10 -6 0 -11 5 -11 10 0 6 2 10 4
10 3 0 8 -4 11 -10z m-79 -47 c-10 -10 -19 5 -10 18 6 11 8 11 12 0 2 -7 1
-15 -2 -18z m-36 -273 c0 -5 -4 -10 -10 -10 -5 0 -10 5 -10 10 0 6 5 10 10 10
6 0 10 -4 10 -10z m-70 -191 c0 -5 -4 -9 -10 -9 -5 0 -10 7 -10 16 0 8 5 12
10 9 6 -3 10 -10 10 -16z"></path>
<path d="M1496 1198 c-9 -35 -7 -48 7 -48 7 0 12 13 12 29 0 38 -11 48 -19 19z"></path>
<path d="M2785 1150 c-3 -5 -1 -10 4 -10 6 0 11 5 11 10 0 6 -2 10 -4 10 -3 0
-8 -4 -11 -10z"></path>
<path d="M2665 1110 c3 -5 8 -10 11 -10 2 0 4 5 4 10 0 6 -5 10 -11 10 -5 0
-7 -4 -4 -10z"></path>
<path d="M417 783 c-2 -21 0 -44 6 -50 6 -9 5 -13 -4 -13 -10 0 -10 -3 -1 -12
7 -7 12 -22 12 -35 0 -13 24 -119 54 -236 29 -116 53 -219 53 -228 0 -9 7 -32
16 -51 13 -28 21 -65 26 -121 1 -5 6 -5 11 -2 6 3 15 -4 20 -17 7 -17 8 -11 4
27 -3 28 -8 57 -12 65 -6 17 -22 107 -46 278 -9 62 -23 129 -31 148 -8 20 -15
44 -15 54 0 9 -9 44 -20 77 -11 34 -23 78 -26 99 -7 47 -11 54 -28 54 -8 0
-16 -15 -19 -37z"></path>
<path d="M3355 760 c3 -5 8 -10 11 -10 2 0 4 5 4 10 0 6 -5 10 -11 10 -5 0 -7
-4 -4 -10z"></path>
<path d="M4961 373 c-7 -8 -11 -16 -8 -19 2 -2 10 2 17 11 17 20 9 27 -9 8z"></path>
<path d="M5196 333 c-6 -14 -5 -15 5 -6 7 7 10 15 7 18 -3 3 -9 -2 -12 -12z"></path>
<path d="M5142 329 c2 -7 10 -15 17 -17 8 -3 12 1 9 9 -2 7 -10 15 -17 17 -8
3 -12 -1 -9 -9z"></path>
<path d="M4501 306 c13 -14 25 -23 27 -21 7 7 -24 45 -36 45 -9 0 -6 -9 9 -24z"></path>
<path d="M5340 290 c0 -5 5 -10 11 -10 5 0 7 5 4 10 -3 6 -8 10 -11 10 -2 0
-4 -4 -4 -10z"></path>
<path d="M5290 260 c0 -5 5 -10 11 -10 5 0 7 5 4 10 -3 6 -8 10 -11 10 -2 0
-4 -4 -4 -10z"></path>
<path d="M5296 165 c-6 -18 2 -45 15 -45 5 0 9 -7 9 -16 0 -11 -6 -14 -17 -10
-15 5 -14 3 2 -9 17 -14 18 -17 5 -26 -13 -9 -12 -10 2 -5 12 3 15 1 11 -10
-3 -8 -13 -12 -23 -9 -9 3 -23 -2 -30 -10 -12 -14 -8 -15 31 -9 60 9 67 19 38
50 -24 26 -24 26 -1 20 24 -8 31 8 7 18 -20 7 -19 25 2 48 24 26 9 34 -17 8
-24 -24 -41 -20 -20 5 7 8 8 15 2 15 -5 0 -12 -7 -16 -15z"></path>
<path d="M744 130 c3 -14 9 -47 13 -73 3 -27 9 -43 13 -37 7 12 -16 120 -27
130 -3 3 -3 -6 1 -20z"></path>
</g>
</svg>